<svg id="图层_1" data-name="图层 1" xmlns="http://www.w3.org/2000/svg" viewBox="0 0 512 480.05"><defs><style>.cls-1{fill:#61729a;}.cls-2{fill:#99b9da;}.cls-3{fill:#badbfe;}.cls-4{fill:#47568c;}.cls-5{fill:#47568b;}.cls-6{fill:#2c3b73;}.cls-7{fill:#26d6f5;}.cls-8{fill:#0099e3;}.cls-9{fill:#00bff0;}</style></defs><title>bt</title><path class="cls-1" d="M356,580.84c-12.81,0-25.61.15-38.42.15-50.24,0-100.48-.16-150.71.17-9.36.06-17-1.56-21.9-10.16V471c4.9-8.62,12.55-10.57,21.94-10.14,12.63.57,25.31.12,38,.12l151,.07Q356,520.95,356,580.84ZM235,521a15,15,0,1,0-14.85,15A15,15,0,0,0,235,521Zm60,0A15,15,0,1,0,280.19,536,15,15,0,0,0,295,520.93Z" transform="translate(-145 -160.85)"/><path class="cls-1" d="M145,171c4.88-8.62,12.54-10.2,21.89-10.15,61.05.3,122.11.15,183.16.16,2,0,4,.1,6,.15L356,281h0l-151.1,0c-12.49,0-25-.46-37.47.12-9.51.45-17.41-1.3-22.43-10.14Zm75.2,35A15,15,0,1,0,235,221.07,15.05,15.05,0,0,0,220.2,206ZM295,220.82A15,15,0,1,0,280.3,236,15,15,0,0,0,295,220.82Z" transform="translate(-145 -160.85)"/><path class="cls-1" d="M145,421V321c4.9-8.62,12.55-10.57,21.94-10.14,12.63.57,25.31.12,38,.12L356,311h0q0,60-.05,120l-151,.07c-12.49,0-25-.45-37.47.12C157.92,431.59,150,429.84,145,421Zm74.26-35A15,15,0,1,0,205,370.38,15.1,15.1,0,0,0,219.26,386ZM265,371a15,15,0,1,0,14.83-15A15,15,0,0,0,265,371Z" transform="translate(-145 -160.85)"/><path class="cls-2" d="M566.93,375c25.37,8.5,50.71,17.13,76.15,25.44,6.37,2.08,11.41,5.15,13.92,11.57V515c-1,5.15-1.89,10.32-2.94,15.46a146.41,146.41,0,0,1-95.24,109,50.48,50.48,0,0,1-6.75,1.39c0-2.5-.07-5-.07-7.49l-.06-262.24Zm.39,32V602.37a12.21,12.21,0,0,0,1.67-.65c36.34-22,55.76-54.48,57.76-96.7,1.11-23.43.28-46.95.23-70.42,0-9.48,1.36-7.25-7.27-10.2C602.44,418.52,585.08,412.85,567.32,407Z" transform="translate(-145 -160.85)"/><path class="cls-3" d="M551.94,371.16,552,633.4c0,2.5,0,5,.07,7.49-12.15-2.14-22.89-7.79-33.36-13.83-19.16-11-34.54-26.2-47-44.43A11,11,0,0,0,470,581a17.68,17.68,0,0,0-1.11-2.69A147.47,147.47,0,0,1,447,498.45c.11-12.49-.08-25-.13-37.49V431c.05-4.32.13-8.64.15-13,.06-9.48,3.23-13.9,12.3-16.93q43.41-14.47,86.85-28.9A41.49,41.49,0,0,1,551.94,371.16Zm-15.07,35.76c-19.62,6.52-38.69,12.81-57.7,19.32-1,.35-2,2.46-2.07,3.79-.22,6.48-.16,13-.09,19.48.25,21.29-.4,42.65,1.06,63.87,1.94,28.37,14.57,52.32,35.05,71.86,7,6.64,15.14,12,23.75,18.72Z" transform="translate(-145 -160.85)"/><path class="cls-4" d="M446.84,461c.05,12.5.24,25,.13,37.49a147.47,147.47,0,0,0,21.89,79.81A17.68,17.68,0,0,1,470,581L356,580.84q0-59.9-.08-119.79l.1-.1Z" transform="translate(-145 -160.85)"/><path class="cls-5" d="M356,281l0-119.84c1.66,0,3.32-.15,5-.15H550.28c11.11,0,16.72,5.67,16.72,16.91V263.8c0,11.59-5.53,17.19-17,17.2l-42.94,0Z" transform="translate(-145 -160.85)"/><path class="cls-4" d="M551.94,371.16a41.49,41.49,0,0,0-5.8,1.09q-43.44,14.38-86.85,28.9c-9.07,3-12.24,7.45-12.3,16.93,0,4.32-.1,8.64-.15,13H356.05l-.1-.1Q356,371,356,311l151.1,0q22.2,0,44.39,0c9.45,0,15.49,6.09,15.5,15.59,0,16.13,0,32.26-.06,48.39Z" transform="translate(-145 -160.85)"/><path class="cls-6" d="M507.1,311,356,311h0V281h0l151.1,0Z" transform="translate(-145 -160.85)"/><path class="cls-5" d="M204.9,461V431L356,431l.1.1V461l-.1.1Z" transform="translate(-145 -160.85)"/><path class="cls-7" d="M235,521a15,15,0,1,1-14.91-15A15.06,15.06,0,0,1,235,521Z" transform="translate(-145 -160.85)"/><path class="cls-7" d="M295,520.93A15,15,0,1,1,280.06,506,15.07,15.07,0,0,1,295,520.93Z" transform="translate(-145 -160.85)"/><path class="cls-5" d="M356,281v30l-151.1,0V281Z" transform="translate(-145 -160.85)"/><path class="cls-7" d="M220.2,206A15,15,0,1,1,205,220.67,15,15,0,0,1,220.2,206Z" transform="translate(-145 -160.85)"/><path class="cls-7" d="M295,220.82A15,15,0,1,1,279.94,206,15.07,15.07,0,0,1,295,220.82Z" transform="translate(-145 -160.85)"/><path class="cls-7" d="M219.26,386A15,15,0,1,1,235,371.87,15.07,15.07,0,0,1,219.26,386Z" transform="translate(-145 -160.85)"/><path class="cls-7" d="M265,371a15,15,0,1,1,14.92,15A15,15,0,0,1,265,371Z" transform="translate(-145 -160.85)"/><path class="cls-8" d="M567.32,407c17.76,5.9,35.12,11.57,52.39,17.45,8.63,3,7.24.72,7.27,10.2,0,23.47.88,47-.23,70.42-2,42.22-21.42,74.67-57.76,96.7a12.21,12.21,0,0,1-1.67.65Z" transform="translate(-145 -160.85)"/><path class="cls-9" d="M536.87,406.92V604c-8.61-6.72-16.78-12.08-23.75-18.72-20.48-19.54-33.11-43.49-35.05-71.86-1.46-21.22-.81-42.58-1.06-63.87-.07-6.5-.13-13,.09-19.48,0-1.33,1-3.44,2.07-3.79C498.18,419.73,517.25,413.44,536.87,406.92Z" transform="translate(-145 -160.85)"/><path class="cls-6" d="M356.05,461v-29.9h90.79V461Z" transform="translate(-145 -160.85)"/></svg>