<svg id="图层_1" data-name="图层 1" xmlns="http://www.w3.org/2000/svg" viewBox="0 0 323.47 305.42"><title>filter</title><path d="M201.2,56.66q63.62,0,127.21,0c19.92,0,35.1,15.52,34.32,35a33.76,33.76,0,0,1-9.31,21.89q-53,58.23-106,116.45a15.39,15.39,0,0,0-4.44,11.55c.24,19.57,0,39.15.16,58.73A14.8,14.8,0,0,1,237,312.82q-28.26,22.44-56.38,45.08c-3.31,2.66-6.78,4.71-11.23,4-6.22-.93-10.2-6.06-10.2-13.17,0-34.05-.26-68.1.18-102.14.11-8.29-2.15-14.25-7.83-20.41C117.19,189,83.28,151.44,49.24,114c-10-11-12.86-23.62-6.74-37.31,6-13.52,17.12-20,31.87-20Q137.79,56.61,201.2,56.66Zm-18,268.53c12-9.73,23.33-18.76,34.47-28,1-.81,1.39-2.8,1.4-4.25.09-20.08.14-40.16,0-60.24a16.85,16.85,0,0,1,4.65-12.16q55.53-61,111-122.14c3.26-3.59,5.26-7.37,3.06-12.15-2.11-4.58-6.07-5.7-10.82-5.7q-125.93.08-251.85,0c-4.77,0-8.67,1.23-10.74,5.82s-.21,8.36,3,11.85q55.64,61.19,111.22,122.41a16.91,16.91,0,0,1,4.75,12.11c-.11,29.19-.05,58.38-.05,87.57Z" transform="translate(-39.29 -56.64)"/></svg>