<?xml version="1.0" encoding="utf-8"?>
<!-- Generator: Adobe Illustrator 26.3.1, SVG Export Plug-In . SVG Version: 6.00 Build 0)  -->
<svg version="1.1" id="图层_1" xmlns="http://www.w3.org/2000/svg" xmlns:xlink="http://www.w3.org/1999/xlink" x="0px" y="0px"
	 viewBox="0 0 256 256" style="enable-background:new 0 0 256 256;" xml:space="preserve">
<style type="text/css">
	.st0{fill:none;}
	.st1{fill:#464646;}
	.st2{fill:#2D2D2D;}
</style>
<path class="st0" d="M-311.5,163"/>
<g>
	<g>
		<g>
			<g>
				<path d="M128.4,251.1c-20.3,0-40.6-0.1-60.9,0c-17.8,0.1-32.8-6.8-45.2-19.1c-11.9-11.8-17.6-26.3-17.6-43.2
					C4.7,147.6,4.3,106.3,4.9,65c0.5-28.5,20.5-53.5,49-59c4.4-0.8,9-1.4,13.5-1.4c40.6-0.1,81.2-0.2,121.9-0.1
					c27.4,0.1,49.7,16.9,58.5,41.3c2,5.6,3.3,11.8,3.3,17.7c0.3,42.4,0.8,84.7,0,127.1c-0.6,31.8-22.4,54.8-53.3,60.1
					c-8.2,1.4-16.8,0.4-25.2,0.4C157.8,251.2,143.1,251.1,128.4,251.1z M132,43.7c-29.4-0.3-51.9,9.9-68.9,30.6
					c-16,19.5-22.3,42.4-17.9,67.4c4.3,24.1,16.8,43.3,37.4,56.8c3.4,2.2,7.1,4.2,10.9,5.7c5.9,2.4,9.9,0,10.8-6.1
					c0.3-2.3,0.3-4.8,0.3-7.1c0-5.1,0-5.3-5.4-5.7c-8.5-0.7-15-5-20.3-11.4c-2.8-3.4-5-7-9.8-7.9c-1-0.2-2.5-2.2-2.4-3.3
					c0.2-1.5,1.3-3.1,2.6-4.1c0.8-0.6,2.5-0.4,3.7-0.2c5,0.8,8.4,4.2,11.7,7.6c4.4,4.6,9.9,6.7,16.1,7.4c2.7,0.3,4.3-0.4,5.3-3.4
					c1-3,2.8-5.9,4.8-8.4c1.8-2.3,1-2.6-1.3-3c-6.2-1-12.5-2.3-17.7-5.8c-16.2-10.9-23-33.7-13.4-50.3c2.1-3.7,2.7-7.6,2.5-11.8
					c-0.1-4.1,0.5-8.2,1.3-12.2c1-4.7,3.1-5.8,7.4-4.3c3.6,1.3,7.2,2.9,10.5,4.8c2.7,1.5,5.3,2.5,8.5,2.5c12.8-0.1,25.5-0.1,38.3,0
					c3.2,0,5.8-0.7,8.6-2.3c3.3-1.9,6.9-3.6,10.5-4.9c4.4-1.6,6.5-0.6,7.7,4c1,3.9,1.7,8.1,1.4,12.1c-0.3,4.6,0.8,8.3,2.7,12.3
					c2,4.4,3.7,9.3,4.2,14.1c1.6,15.9-9,38.6-34.9,41.9c-3.4,0.4-3.5,0.6-1.5,3.2c4.2,5.3,6.1,11.3,5.7,18.1
					c-0.2,4.5-0.1,9.1,0,13.6c0,1.7,0.2,3.4,0.8,5.1c1.8,5.7,5.6,7.7,10.9,5c9.2-4.7,18.2-10.1,25.3-17.8
					c18.2-19.9,26.3-43.2,22.6-70.2c-2.2-16.3-8.7-30.8-19.3-43.2C175.3,53.8,154.4,44.2,132,43.7z"/>
			</g>
		</g>
		<g>
			<path class="st1" d="M89.7,74.4c-4.4-1.5-6.5-0.4-7.4,4.3c-0.3,1.6-0.6,3.2-0.9,4.8c6.4-1.7,13.3-2.8,20.4-3.5
				c-0.5-0.3-1.1-0.5-1.6-0.8C96.9,77.3,93.3,75.6,89.7,74.4z"/>
			<path class="st1" d="M166.1,74.5c-2.6,0.9-5.1,2-7.5,3.2c5-0.3,9.9-0.6,14.5-1.2C171.9,73.7,169.8,73.2,166.1,74.5z"/>
			<path class="st1" d="M47.9,101.1c3.2-9.5,8.3-18.5,15.2-26.9c17-20.7,39.5-30.9,69-30.6c22.4,0.6,43.3,10.1,59.5,29
				c0.1,0.1,0.1,0.2,0.2,0.3c5.7-0.7,29.2-5.1,30.1-29.4C223.2,9.6,188.2,5,188.2,5s0.9-0.2,2.4-0.4c-0.5,0-0.9,0-1.4,0
				C148.6,4.5,108,4.5,67.4,4.6c-4.5,0-9,0.6-13.5,1.4c-28.5,5.5-48.5,30.5-49,59c-0.6,37.7-0.2,75.4-0.2,113.1
				C8.6,149,23,120.9,47.9,101.1z"/>
		</g>
	</g>
	<g>
		<path class="st2" d="M247.9,45.8c-8.5-23.7-29.8-40.3-56.2-41.3c-2.1,0.3-3.3,0.5-3.3,0.5s35,4.6,33.7,38.6
			c-0.9,24.1-24,28.6-30,29.4c10.4,12.3,16.8,26.7,19,42.8c0.3,2.1,0.5,4.1,0.6,6.2c25.7-12.6,39.4-35.9,39.4-61.4
			C250.8,55.6,249.6,50.5,247.9,45.8z"/>
		<path class="st2" d="M126.9,192.1c-1-35.2,30.7-54.9,53.8-61c1.5-4.9,2-9.8,1.5-14.2c-0.5-4.8-2.1-9.7-4.2-14.1
			c-1.9-4-3-7.8-2.7-12.4c0.3-4-0.4-8.2-1.4-12.1c-0.2-0.7-0.4-1.3-0.6-1.8c-4.8,0.6-9.8,1-14.9,1.2c-0.9,0.5-1.8,1-2.7,1.5
			c-2.7,1.6-5.4,2.4-8.5,2.3c-12.8-0.1-25.5-0.1-38.3,0c-2.5,0-4.6-0.6-6.7-1.6c-7.2,0.7-14.2,1.8-20.7,3.5
			c-0.3,2.4-0.5,4.8-0.5,7.2c0.2,4.3-0.4,8.1-2.5,11.8c-9.7,16.6-2.8,39.4,13.4,50.2c5.3,3.5,11.5,4.8,17.7,5.8
			c2.3,0.4,3.1,0.7,1.3,3c-1.9,2.5-3.7,5.4-4.8,8.4c-1,2.9-2.6,3.7-5.3,3.4c-6.2-0.7-11.7-2.8-16.1-7.4c-3.3-3.4-6.7-6.9-11.7-7.7
			c-1.2-0.2-2.9-0.5-3.7,0.2c-1.2,1-2.4,2.6-2.5,4.1c-0.1,1,1.4,3.1,2.4,3.3c4.8,0.9,7,4.5,9.8,7.9c5.2,6.4,11.7,10.7,20.3,11.4
			c5.3,0.4,5.4,0.6,5.4,5.7c0,2.4,0.1,4.8-0.3,7.1c-0.9,6-4.9,8.4-10.8,6.1c-3.8-1.5-7.5-3.5-10.9-5.7
			c-20.7-13.5-33.1-32.7-37.4-56.8c-2.5-14.2-1.6-27.8,2.6-40.4c-24.7,19.6-39.1,47.6-43.2,76.5c0,3.7,0,7.4,0,11.1
			c0,16.8,5.7,31.4,17.6,43.2c12.4,12.4,27.4,19.2,45.2,19.1c20.3-0.1,40.6,0,60.9,0c14.7,0,29.4,0,44.1,0c5.5,0,11.2,0.4,16.7,0.3
			C175.8,250.2,128.3,242.6,126.9,192.1z"/>
	</g>
</g>
</svg>
