<svg id="图层_1" data-name="图层 1" xmlns="http://www.w3.org/2000/svg" viewBox="0 0 377.79 376.95"><defs><style>.cls-1{fill:#5d6073;}.cls-2{fill:#484c5a;}.cls-3{fill:#e2e6f2;}.cls-4{fill:#3a637c;}.cls-5{fill:#4e7992;}.cls-6{fill:#f8ba4c;}.cls-7{fill:#f76280;}.cls-8{fill:#d4d9e7;}.cls-9{fill:#b9c0cd;}.cls-10{fill:#cad0dd;}.cls-11{fill:#748bfc;}.cls-12{fill:#365b6a;}.cls-13{fill:#f9536a;}.cls-14{fill:#576cfa;}.cls-15{fill:#4864ee;}.cls-16{fill:#626577;}.cls-17{fill:#bbc2cf;}.cls-18{fill:#547e95;}.cls-19{fill:#eeac43;}.cls-20{fill:#7acb7a;}.cls-21{fill:#fcd37a;}.cls-22{fill:#f86684;}.cls-23{fill:#b0b6c0;}.cls-24{fill:#9bd899;}.cls-25{fill:#cdd3df;}</style></defs><title>omp</title><path class="cls-1" d="M424.33,420.53c-9,5.06-18,10.06-26.95,15.21Q315,483.23,232.74,530.83c-3.49,2-6.56,3-9.74-.22l.73-.75a17.4,17.4,0,0,0,.71-3.5q.06-36.54,0-73.08a19.07,19.07,0,0,0-.71-3.5c-.25-26.16-.57-52.32-.7-78.49,0-6.16,1.42-11.89,7.35-15.32,3.77-2.18,7.55-4.33,11.32-6.51l46.85-27,45.56-26.28,46.51-26.86L426.17,243l42.29-24.44c4,1.3,4.32,4.52,4.33,8.07q.07,71.88.23,143.76l-13.6,8.23v-87a19.29,19.29,0,0,0-2,.7c-17.17,9.88-34.36,19.72-51.43,29.75-1.1.64-1.86,2.79-1.86,4.23q-.07,44.89.09,89.79c0,.91.16,1.82.28,3.13l19.8-11.33Zm-23.47-95.35c-1.72.89-2.6,1.31-3.45,1.8q-75.87,43.78-151.77,87.54c-2.08,1.19-2.56,2.56-2.56,4.76.12,29.8.14,59.6.21,89.4,0,1,.15,2.06.26,3.39,1.17-.6,1.95-1,2.69-1.38q76-43.89,152.09-87.74c2.19-1.26,2.76-2.66,2.75-5-.15-19.58-.17-39.15-.21-58.73C400.84,348.1,400.86,337,400.86,325.18ZM243,412.73c1.45-.76,2.2-1.13,2.93-1.55q75.92-43.81,151.84-87.6a4.92,4.92,0,0,0,2.89-5c-.17-13.84-.14-27.69-.19-41.53,0-.94-.1-1.87-.17-3.21-1.56.87-2.74,1.51-3.9,2.18l-70.24,40.54Q286,339.76,245.93,363c-1.26.73-2.78,2.44-2.79,3.71C242.94,381.8,243,396.89,243,412.73ZM458.93,240.22c-.92.39-1.37.53-1.78.76-17,9.82-34.09,19.61-51,29.58a5.57,5.57,0,0,0-2,4.16c-.12,14.08,0,28.16,0,42.25,0,.79.1,1.57.16,2.53a12.68,12.68,0,0,0,1.38-.52c17.05-9.82,34.11-19.6,51.07-29.56a5.6,5.6,0,0,0,2.21-4.06c.18-8.1,0-16.2,0-24.3C458.92,254.25,458.93,247.44,458.93,240.22ZM228.22,445.59c-.09,5,2,6.67,5.42,5.21,3.66-1.58,7-7.33,6.54-11.26-.37-3.13-2.67-4.44-5.48-3.14C230.4,438.39,228.92,442.2,228.22,445.59ZM468.5,293.85c-3.16.34-3.91,1.89-3.8,4.42.16,3.72,0,7.46,0,11.2v15.46l1.25.5c.83-1.24,2.37-2.46,2.4-3.72C468.59,312.52,468.5,303.31,468.5,293.85Z" transform="translate(-211.61 -212.75)"/><path class="cls-2" d="M468.46,218.57,426.17,243,380.62,269.3l-46.51,26.86-45.56,26.28-46.85,27c-3.77,2.18-7.55,4.33-11.32,6.51-5.93,3.43-7.39,9.16-7.35,15.32.13,26.17.45,52.33.7,78.49v80.08l-.73.75c-12.95-7.31-11-4.05-11-17.62-.18-50-.17-100-.36-150,0-6.7,2.64-11.24,8.42-14.57q116.14-66.94,232.17-134.1c3.33-1.93,6.08-2.27,9.25,0C463.67,215.89,466.11,217.16,468.46,218.57Z" transform="translate(-211.61 -212.75)"/><path class="cls-3" d="M243.17,536.58c5.59-3.41,11.11-6.92,16.77-10.2,13.94-8.11,28-16,41.89-24.22,2.24-1.32,3.92-1.48,6.12-.19,12.84,7.53,25.75,14.95,38.62,22.44q17.21,10,34.38,20.09a14.1,14.1,0,0,1,1.43,1.12c-12.11,7-24.21,14-36.36,21-8.79,5-17.65,9.95-26.48,14.93Q293,566,266.48,550.49C258.68,545.91,250.94,541.22,243.17,536.58ZM325,516.77c-2.72-2.94-4.83-1.54-6.87-.36q-22.38,13-44.72,26l-6.46,3.76c4.11,3.28,6.68.24,9.24-1.2,10.71-6,21.31-12.24,31.93-18.41C313.63,523.39,319.16,520.15,325,516.77Zm-65.42,24.79c1.88,2.18,3.15,2.46,5.39,1.14,12.19-7.2,24.55-14.12,36.82-21.19,5.13-3,10.19-6,15.37-9.08-2.68-3.35-5-1.36-7.34,0q-13.39,7.73-26.75,15.51ZM309.65,508c-2.61-3.26-4.9-1.5-7.13-.21q-18.24,10.54-36.46,21.16c-4.66,2.71-9.31,5.45-14.07,8.24,1.76,2.2,3,2.46,5.12,1.2,7.13-4.3,14.45-8.29,21.66-12.46C289,520,299.17,514.07,309.65,508Zm15.19,26c5.52,2.56,10.29,2.19,14.88-.43a4.56,4.56,0,0,0,1-7.27c-3-3-11.21-3.51-15.25-.72l6.19,4.25Zm-7.75,4.75-.31-1.48c-1.65.17-3.55-.15-4.91.57-5.49,2.89-10.83,6.08-16.2,9.19-4.44,2.57-8.85,5.18-13.27,7.77l.41,1.51c1.82-.25,3.89,0,5.42-.82,5.72-3,11.28-6.28,16.86-9.53C309.13,543.65,313.1,541.19,317.09,538.78Zm-42,11.42.11,1.6c1.59-.08,3.4.31,4.72-.33,3.79-1.84,7.39-4.07,11-6.19,6.19-3.6,12.37-7.22,18.7-10.92-1.88-2.07-3.4-2.73-5.61-1a44.14,44.14,0,0,1-5.79,3.36Q286.64,543.48,275.06,550.2Zm49.45-6.75-.29-1.7c-1.58.16-3.38-.11-4.71.56-4.1,2-8.05,4.4-12,6.7-5.87,3.4-11.71,6.85-17.56,10.28l.18,1.34c1.72-.09,3.55.16,5.13-.36a28.79,28.79,0,0,0,5.19-2.88Zm-3.91,9.69-.17.84c6.07,3.54,12.12,7.13,18.25,10.56.72.41,1.93,0,2.91-.1a176.86,176.86,0,0,0-18-11.24C322.84,552.77,321.61,553.14,320.6,553.14Zm2.47,21.44c-5.6-5-18.36-11.46-20.52-10.45C307.73,568.93,320.83,575.59,323.07,574.58Zm4.75-45.1c-2.22-1.31-3.82-2.63-5.66-3.21-1.19-.38-3.66,0-3.91.6a7.57,7.57,0,0,0,0,5.06c.62,1.66,2.23,2.06,4,.84S325.61,530.76,327.82,529.48Zm38.49,20.26c-5.78-3.33-11.19-6.5-16.67-9.53-.53-.29-1.51.21-2.8.44C356,547.39,363.29,551,366.31,549.74Zm-48.93,7.89-.47,1.32c5.12,3,10.22,6,15.39,8.93.72.4,1.87,0,2.81,0l.11-1C329.18,564.05,324.05,559.25,317.38,557.63Zm28-11c4.73,4.52,12.1,8,14.11,6.73C353.74,548.58,347.54,545.63,345.4,546.63Zm2,14.1c-4-2.55-7.42-6.4-12.59-6.19C338.84,557,342.19,560.92,347.4,560.73Zm-18,10.17c-7.66-5.44-10.44-6.62-12.69-5.46C321.37,569.64,327.07,572.22,329.44,570.9Zm42.86-24.83c-4.22-1.67-7.09-5.54-11.85-5C366.07,546,369.66,547.59,372.3,546.07Zm-18.76,10.84c-3-1.26-5-5.09-9.07-3.57C347.44,554.74,349.45,558.41,353.54,556.91Z" transform="translate(-211.61 -212.75)"/><path class="cls-4" d="M585.4,319.46c3.24,1.08,3.61,3.73,3.61,6.6q0,23.9,0,47.79,0,25.95-.06,51.9c-1.11.56-2.24,1.07-3.31,1.69q-54.51,31.47-109,62.95c-13.91,8-27.86,15.95-41.79,23.93q0-12.45-.07-24.89,0-35.68,0-71.37a17.49,17.49,0,0,0-.71-3.51c.88-7.35,4.68-12.53,11.19-16.1,11.11-6.07,22.1-12.38,33.08-18.68,14.78-8.47,29.51-17,44.25-25.53,17.12-9.89,34.19-19.84,51.37-29.61C577.58,322.57,581.58,321.17,585.4,319.46Zm-1.76,5.91c-1.59.82-2.58,1.27-3.52,1.81q-66.49,38.38-133,76.75c-4.89,2.82-7.17,6.89-7.14,12.56q.18,41.72.19,83.43v3.89L462.31,491l118.09-68.2c1.69-1,3.32-1.67,3.31-4.32C583.6,387.69,583.64,356.89,583.64,325.37Z" transform="translate(-211.61 -212.75)"/><path class="cls-5" d="M434.79,489.43q0,12.45.07,24.89.34,7,.71,14.1c-2.73-1.46-5.51-2.8-8.16-4.39-2.89-1.72-2.86-4.74-2.87-7.62q-.09-28.15-.13-56.33,0-19.79-.08-39.55V407.94c1.13-7.11,5-12.11,11.32-15.56,8-4.36,15.86-9.14,23.77-13.75L473,370.4c8.23-4.61,16.5-9.14,24.68-13.84,23-13.21,46-26.32,68.8-39.84,5.4-3.2,9.91-4,14.88.11a42.1,42.1,0,0,0,4,2.63c-3.82,1.71-7.82,3.11-11.44,5.17-17.18,9.77-34.25,19.72-51.37,29.61-14.74,8.51-29.47,17.06-44.25,25.53-11,6.3-22,12.61-33.08,18.68-6.51,3.57-10.31,8.75-11.19,16.1q0,35.68,0,71.37A17.32,17.32,0,0,0,434.79,489.43Z" transform="translate(-211.61 -212.75)"/><path class="cls-3" d="M435.57,528.42q-.36-7-.71-14.1c13.93-8,27.88-15.91,41.79-23.93q54.51-31.45,109-62.95c1.07-.62,2.2-1.13,3.31-1.69a21,21,0,0,0,.06,3c2,12.57-4.45,19.76-14.93,25.29-14,7.4-27.58,15.63-41.31,23.54a8,8,0,0,0-1.54,1.54c-.5,0-1.09-.16-1.46.06q-13.12,7.73-26.19,15.51l-11.18,6.78c-6.27,3.43-12.6,6.76-18.81,10.3-10,5.71-19.83,11.64-29.83,17.31C441.09,530.58,438,531.93,435.57,528.42Zm80.12-51.9c-.48-.4-1.35-1.74-2.4-1.91-2.47-.38-5.81,3.57-5.62,6.73a3.79,3.79,0,0,0,2.16,2.75C512.2,484.71,515.4,480.89,515.69,476.52Z" transform="translate(-211.61 -212.75)"/><path class="cls-4" d="M496.3,538.92a6.7,6.7,0,0,1-2.54-.26q-12.43-7.11-24.78-14.37c-2.84-1.68-2.9-4.76-.09-6.38,7.82-4.54,15.7-9,23.55-13.48.56,2.39.36,5.53,1.83,7,2.29,2.28,5.7,3.42,8.64,5.05a11.34,11.34,0,0,0,2.85-.71c7-4,13.92-8.12,21-12,2.91-1.58,4.29-3.37,4.12-6.92-.24-5,.29-10.07.48-15.11,5.3-4.87,10.22-3.66,15.69.18,6,4.19,12.47,7.58,18.75,11.32-.34.71-.49,1.76-1,2.08-8.92,5.11-17.91,10.09-26.84,15.19q-20.22,11.54-40.36,23.2C495.4,535,494.61,536.69,496.3,538.92Z" transform="translate(-211.61 -212.75)"/><path class="cls-6" d="M397,512.63c.67,4.33-1.88,6.15-5.51,7.33-13.9,4.52-27.58,4.57-40.92-1.94a33.46,33.46,0,0,1-5.88-3.89c-3.08-2.44-5-5.52-4.41-9.67,0-.32,0-.63,0-.95l.36-8.86c12.65,17,41.49,16.15,55.95,8.26C396.69,506.15,396.84,509.39,397,512.63Z" transform="translate(-211.61 -212.75)"/><path class="cls-7" d="M340.24,503.51c0,.32,0,.63,0,.95-.22-.12-.55-.18-.64-.36-3.14-6.87,0-21.86,5.63-26.6,6-5.07,13.33-7.28,20.94-8.05,9.63-1,19.16-.24,28.08,4.07a14.34,14.34,0,0,1,2.26,1.74c-2.68,1.56-5.3,3.26-8.07,4.65-4.59,2.31-9.09,5.44-14,6.38-8.21,1.57-16.71,1.67-25.09,2.43-3.16.29-6.3.71-9.83,1.12C339.79,494.64,340,499.08,340.24,503.51Z" transform="translate(-211.61 -212.75)"/><path class="cls-8" d="M243.17,536.58c7.77,4.64,15.51,9.33,23.31,13.91q26.5,15.57,53.06,31c0,2.72,0,5.45,0,8.17Q297.64,577,275.73,564.29q-14.66-8.5-29.29-17.06C242.08,544.69,241.26,542,243.17,536.58Z" transform="translate(-211.61 -212.75)"/><path class="cls-9" d="M531.35,481.76c-.19,5-.72,10.1-.48,15.11.17,3.55-1.21,5.34-4.12,6.92-7.07,3.86-14,8-21,12a11.34,11.34,0,0,1-2.85.71l.69-21.82q13.08-7.77,26.19-15.51c.37-.22,1,0,1.46-.06C531.28,480,531.32,480.87,531.35,481.76Z" transform="translate(-211.61 -212.75)"/><path class="cls-10" d="M319.55,589.7c0-2.72,0-5.45,0-8.17,8.83-5,17.69-9.9,26.48-14.93,12.15-7,24.25-14,36.36-21,1,5.81-1,9.3-6.5,12.31-18.29,10-36.19,20.69-54.25,31.09A10.14,10.14,0,0,1,319.55,589.7Z" transform="translate(-211.61 -212.75)"/><path class="cls-11" d="M396.79,479.59a43.41,43.41,0,0,0,5.17-2.9c2.55-1.92,4.55-1.49,6.89.48,4.83,4.07,7.33,8.95,6.37,15.34l-9.62,10.41-23.25-14.29Z" transform="translate(-211.61 -212.75)"/><path class="cls-12" d="M496.3,538.92c-1.69-2.23-.9-4,1.24-5.19q20.15-11.64,40.36-23.2c8.93-5.1,17.92-10.08,26.84-15.19.56-.32.71-1.37,1-2.08,2.5,2.61,2.19,4.55-1.11,6.46L503.13,535.2C500.88,536.49,498.58,537.68,496.3,538.92Z" transform="translate(-211.61 -212.75)"/><path class="cls-13" d="M396.79,479.59l-14.44,9-.84,4.7a16.71,16.71,0,0,0-10.62-2.43c-9.52.92-19.07,1.54-28.59,2.37-.6.06-1.14.9-1.7,1.38l-.36,8.86c-.22-4.43-.45-8.87-.69-13.67,3.53-.41,6.67-.83,9.83-1.12,8.38-.76,16.88-.86,25.09-2.43,4.9-.94,9.4-4.07,14-6.38,2.77-1.39,5.39-3.09,8.07-4.65C396.62,476.71,396.7,478.15,396.79,479.59Z" transform="translate(-211.61 -212.75)"/><path class="cls-14" d="M381.51,493.33l.84-4.7,23.25,14.29c0,1.45-.08,2.92,0,4.37.24,3.07.57,6.13.86,9.2A13.47,13.47,0,0,1,403,516c-2.08-1-4-2.19-6-3.32-.14-3.24-.29-6.48-.43-9.72a28.84,28.84,0,0,0-2.78-2.2C389.71,498.21,385.6,495.79,381.51,493.33Z" transform="translate(-211.61 -212.75)"/><path class="cls-8" d="M503.6,494.66l-.69,21.82c-2.94-1.63-6.35-2.77-8.64-5.05-1.47-1.47-1.27-4.61-1.83-7,0-1,0-2,0-3Z" transform="translate(-211.61 -212.75)"/><path class="cls-15" d="M406.49,516.49c-.29-3.07-.62-6.13-.86-9.2-.11-1.45,0-2.92,0-4.37l9.62-10.41c0,3,0,5.94.11,8.9C415.65,508.38,412.27,513.12,406.49,516.49Z" transform="translate(-211.61 -212.75)"/><path class="cls-2" d="M228.22,445.59c.7-3.39,2.18-7.2,6.48-9.19,2.81-1.3,5.11,0,5.48,3.14.46,3.93-2.88,9.68-6.54,11.26C230.24,452.26,228.13,450.59,228.22,445.59Z" transform="translate(-211.61 -212.75)"/><path class="cls-2" d="M468.5,293.85c0,9.46.09,18.67-.11,27.86,0,1.26-1.57,2.48-2.4,3.72l-1.25-.5V309.47c0-3.74.12-7.48,0-11.2C464.59,295.74,465.34,294.19,468.5,293.85Z" transform="translate(-211.61 -212.75)"/><path class="cls-16" d="M223.73,529.86V449.78a19.07,19.07,0,0,1,.71,3.5q.06,36.54,0,73.08A17.4,17.4,0,0,1,223.73,529.86Z" transform="translate(-211.61 -212.75)"/><path class="cls-17" d="M325,516.77c-5.8,3.38-11.33,6.62-16.88,9.83-10.62,6.17-21.22,12.4-31.93,18.41-2.56,1.44-5.13,4.48-9.24,1.2l6.46-3.76q22.35-13,44.72-26C320.13,515.23,322.24,513.83,325,516.77Z" transform="translate(-211.61 -212.75)"/><path class="cls-17" d="M259.54,541.56,283,527.91q13.37-7.77,26.75-15.51c2.31-1.33,4.66-3.32,7.34,0-5.18,3.06-10.24,6.13-15.37,9.08-12.27,7.07-24.63,14-36.82,21.19C262.69,544,261.42,543.74,259.54,541.56Z" transform="translate(-211.61 -212.75)"/><path class="cls-17" d="M309.65,508c-10.48,6.09-20.66,12-30.88,17.93-7.21,4.17-14.53,8.16-21.66,12.46-2.09,1.26-3.36,1-5.12-1.2,4.76-2.79,9.41-5.53,14.07-8.24q18.22-10.59,36.46-21.16C304.75,506.48,307,504.72,309.65,508Z" transform="translate(-211.61 -212.75)"/><path class="cls-17" d="M324.84,534l6.8-4.17-6.19-4.25c4-2.79,12.29-2.24,15.25.72a4.56,4.56,0,0,1-1,7.27C335.13,536.22,330.36,536.59,324.84,534Z" transform="translate(-211.61 -212.75)"/><path class="cls-17" d="M317.09,538.78c-4,2.41-8,4.87-12,7.21-5.58,3.25-11.14,6.54-16.86,9.53-1.53.8-3.6.57-5.42.82l-.41-1.51c4.42-2.59,8.83-5.2,13.27-7.77,5.37-3.11,10.71-6.3,16.2-9.19,1.36-.72,3.26-.4,4.91-.57Z" transform="translate(-211.61 -212.75)"/><path class="cls-17" d="M275.06,550.2q11.58-6.71,23.17-13.43a44.14,44.14,0,0,0,5.79-3.36c2.21-1.78,3.73-1.12,5.61,1-6.33,3.7-12.51,7.32-18.7,10.92-3.65,2.12-7.25,4.35-11,6.19-1.32.64-3.13.25-4.72.33Z" transform="translate(-211.61 -212.75)"/><path class="cls-17" d="M324.51,543.45l-24.08,13.94a28.79,28.79,0,0,1-5.19,2.88c-1.58.52-3.41.27-5.13.36l-.18-1.34c5.85-3.43,11.69-6.88,17.56-10.28,4-2.3,7.92-4.66,12-6.7,1.33-.67,3.13-.4,4.71-.56Z" transform="translate(-211.61 -212.75)"/><path class="cls-1" d="M320.6,553.14c1,0,2.24-.37,3,.06a176.86,176.86,0,0,1,18,11.24c-1,0-2.19.51-2.91.1-6.13-3.43-12.18-7-18.25-10.56Z" transform="translate(-211.61 -212.75)"/><path class="cls-14" d="M323.07,574.58c-2.24,1-15.34-5.65-20.52-10.45C304.71,563.12,317.47,569.62,323.07,574.58Z" transform="translate(-211.61 -212.75)"/><path class="cls-13" d="M327.82,529.48c-2.21,1.28-4,2.17-5.61,3.29s-3.36.82-4-.84a7.57,7.57,0,0,1,0-5.06c.25-.65,2.72-1,3.91-.6C324,526.85,325.6,528.17,327.82,529.48Z" transform="translate(-211.61 -212.75)"/><path class="cls-18" d="M366.31,549.74c-3,1.22-10.35-2.35-19.47-9.09,1.29-.23,2.27-.73,2.8-.44C355.12,543.24,360.53,546.41,366.31,549.74Z" transform="translate(-211.61 -212.75)"/><path class="cls-19" d="M317.38,557.63c6.67,1.62,11.8,6.42,17.84,9.33l-.11,1c-.94,0-2.09.35-2.81,0C327.13,565,322,561.94,316.91,559Z" transform="translate(-211.61 -212.75)"/><path class="cls-17" d="M345.4,546.63c2.14-1,8.34,2,14.11,6.73C357.5,554.67,350.13,551.15,345.4,546.63Z" transform="translate(-211.61 -212.75)"/><path class="cls-20" d="M347.4,560.73c-5.21.19-8.56-3.72-12.59-6.19C340,554.33,343.4,558.18,347.4,560.73Z" transform="translate(-211.61 -212.75)"/><path class="cls-7" d="M329.44,570.9c-2.37,1.32-8.07-1.26-12.69-5.46C319,564.28,321.78,565.46,329.44,570.9Z" transform="translate(-211.61 -212.75)"/><path class="cls-6" d="M372.3,546.07c-2.64,1.52-6.23,0-11.85-5C365.21,540.53,368.08,544.4,372.3,546.07Z" transform="translate(-211.61 -212.75)"/><path class="cls-14" d="M353.54,556.91c-4.09,1.5-6.1-2.17-9.07-3.57C348.52,551.82,350.51,555.65,353.54,556.91Z" transform="translate(-211.61 -212.75)"/><path class="cls-18" d="M434.79,489.43a17.32,17.32,0,0,1-.7-3.51q-.06-35.68,0-71.37a17.49,17.49,0,0,1,.71,3.51Q434.83,453.75,434.79,489.43Z" transform="translate(-211.61 -212.75)"/><path class="cls-17" d="M515.69,476.52c-.29,4.37-3.49,8.19-5.86,7.57a3.79,3.79,0,0,1-2.16-2.75c-.19-3.16,3.15-7.11,5.62-6.73C514.34,474.78,515.21,476.12,515.69,476.52Z" transform="translate(-211.61 -212.75)"/><path class="cls-21" d="M381.51,493.33c4.09,2.46,8.2,4.88,12.26,7.38a28.84,28.84,0,0,1,2.78,2.2c-14.46,7.89-43.3,8.71-55.95-8.26.56-.48,1.1-1.32,1.7-1.38,9.52-.83,19.07-1.45,28.59-2.37A16.71,16.71,0,0,1,381.51,493.33Z" transform="translate(-211.61 -212.75)"/><path class="cls-20" d="M392.11,351.45v5.2q0,27.47.07,54.92c0,5.46-.85,6.49-7.11,8.15-.06-1.39-.17-2.71-.17-4q-.07-27.45-.13-54.91C384.76,354.22,385,353.86,392.11,351.45Z" transform="translate(-211.61 -212.75)"/><path class="cls-17" d="M326.16,389.68c.06.62.17,1.21.17,1.8.22,18.66.19,37.33.76,56,.18,5.66-1.56,8.88-7.38,10.19-.06-1.29-.17-2.59-.17-3.89q0-28,0-56C319.5,392.11,320,391.47,326.16,389.68Z" transform="translate(-211.61 -212.75)"/><path class="cls-11" d="M254.11,495.63c-.07-1.72-.18-3-.18-4.36q-.06-21.84-.1-43.67c0-6.58.24-6.92,7.32-9.32,0,5.91,0,11.72,0,17.52q0,15.12,0,30.23C261.2,492.74,261.2,492.74,254.11,495.63Z" transform="translate(-211.61 -212.75)"/><path class="cls-22" d="M294,419.11V455.4q0,5.81,0,11.6c0,6.92,0,6.92-7.35,9.78V472.7q0-21.7-.08-43.41C286.62,422.21,286.62,422.21,294,419.11Z" transform="translate(-211.61 -212.75)"/><path class="cls-19" d="M335.89,448.29c0-17.55-.19-34.73.26-51.9.05-2,3.55-4,5.46-6l1,.65c.08.91.23,1.82.24,2.73q.19,22.41.36,44.81C343.28,445.55,343.26,445.55,335.89,448.29Z" transform="translate(-211.61 -212.75)"/><path class="cls-8" d="M375.67,372.42v3.92q0,22.21,0,44.43c0,5.69-.48,6.31-6.78,8.31v-3.69c0-14.44.16-28.88-.1-43.31C368.73,377.19,369.38,373.39,375.67,372.42Z" transform="translate(-211.61 -212.75)"/><path class="cls-16" d="M270.26,486.34c0-14.49,0-28.54.07-42.58a4.3,4.3,0,0,1,1.59-2.93,48.69,48.69,0,0,1,5.68-3.31v8.15q0,15.3,0,30.61C277.65,483.29,277.66,483.29,270.26,486.34Z" transform="translate(-211.61 -212.75)"/><path class="cls-14" d="M359.35,390.92v25.43c0,4.36,0,8.73,0,13.09,0,6.51,0,6.51-6.81,9.42-.07-1.28-.18-2.45-.19-3.62q-.06-17.57-.08-35.15C352.28,393.48,352.39,393.34,359.35,390.92Z" transform="translate(-211.61 -212.75)"/><path class="cls-18" d="M310.46,426.79c0,11.86.2,23.51-.12,35.16-.1,3.72-4.28,3.61-7.25,5.83V445.39c0-2.74.35-5.53-.09-8.19C302.08,431.52,304.39,428.27,310.46,426.79Z" transform="translate(-211.61 -212.75)"/><path class="cls-20" d="M374.12,306.54c-.8-.2-1.88-.46-2.95-.75-.22-.06-.39-.29-.59-.43,1.33-5.63,8.95-12.29,14.56-12.71,3.83-.3,6.72,1.94,7.79,6,2,7.74-3.26,20.17-10.92,25.17-.46-3.34-.32-6,1.79-9a19.8,19.8,0,0,0,3.24-9.23c.43-4.59-3.19-6.5-7.18-4C377.9,302.78,376.31,304.6,374.12,306.54Z" transform="translate(-211.61 -212.75)"/><path class="cls-23" d="M306.36,368.13c-.39-4-.52-6.49,1.48-9.31a20.78,20.78,0,0,0,3.35-9.55c.47-4.41-2.9-6.19-6.92-4.12a12.72,12.72,0,0,0-3.26,2.43c-2.78,2.89-2.74,2.93-6.87,1.42,3-5.7,7.06-10.19,13.3-12.05,5.15-1.53,9.37,1.45,9.81,6.75C318.06,353.38,313.73,360.88,306.36,368.13Z" transform="translate(-211.61 -212.75)"/><path class="cls-8" d="M339,342.58a31.9,31.9,0,0,0,0,3.66c.41,3.5-1.9,4-4.41,3.81-3.74-.28-6.56-3.72-6.87-7.61-.58-7.24,2.06-13.35,6.23-19,2.8-3.81,6.25-6.75,10.9-7.89a10.26,10.26,0,0,1,5.31.52c-1.71,3.06-2.05,6.5-6.56,7-6.21.63-11.95,10.79-9.61,16.62.55,1.38,2.63,2.13,4,3.17Z" transform="translate(-211.61 -212.75)"/><path class="cls-22" d="M367.76,310.71c3.1.22,5.12,1,4.78,4.66-.3,3.27,2.07,4.47,5.1,4.5a6.17,6.17,0,0,1,.22,1.64c-.43,2.14,1.53,5.22-2.41,6a7.21,7.21,0,0,1-8.22-4.3A15,15,0,0,1,367.76,310.71Z" transform="translate(-211.61 -212.75)"/><path class="cls-21" d="M352.75,318.94c4.21,7.91-1.25,22.47-9.64,27.21-.36-3-.69-5.7,1.6-8.35,2.62-3,3.72-6.7,3.9-10.95C348.71,324.3,351.14,321.85,352.75,318.94Z" transform="translate(-211.61 -212.75)"/><path class="cls-16" d="M291.94,354.51l4.3,1c.27,3.85-.29,8.26,5.52,8.28a4.71,4.71,0,0,1,.24,1.54c-.48,2,1.57,5-2.08,5.82a7.1,7.1,0,0,1-8.43-3.79C289.82,364.05,289.93,359.47,291.94,354.51Z" transform="translate(-211.61 -212.75)"/><path class="cls-11" d="M276.67,365.06c1.74,10.59-2.74,18.77-10.67,26.31-.39-3.5-.72-6.06,1.27-9s2.4-6.58,3.79-9.81c1.21-2.83,2.8-5.5,4.22-8.23Z" transform="translate(-211.61 -212.75)"/><path class="cls-23" d="M261.64,387.13a7.44,7.44,0,0,1,.15,2c-.48,1.74-.66,4.62-1.66,4.95-2.76.93-5.93,1-8-2-2.82-4-2.54-8.39-1.2-12.77.18-.58,1.78-1.35,2.22-1.11,1.09.6,2.59,1.65,2.7,2.65C256.22,384.45,257.22,387.17,261.64,387.13Z" transform="translate(-211.61 -212.75)"/><path class="cls-24" d="M274,361.24c-2.47,3-3.74,6.62-8.43,6.73-1.65,0-3.61,1.73-4.79,3.19-2.06,2.56-4.1,2.77-6.66,1.09C257.83,363.3,267,358,274,361.24Z" transform="translate(-211.61 -212.75)"/><path class="cls-17" d="M439.62,361.57c-.6,1.05-.95,2.54-1.86,3.09-8.39,5-16.88,9.85-25.35,14.74l-1-.56c.51-1.11.71-2.72,1.57-3.23,8.48-5.09,17.07-10,25.63-14.94Z" transform="translate(-211.61 -212.75)"/><path class="cls-17" d="M410.87,356.44c.37-.89.48-2.19,1.13-2.59,7.28-4.36,14.64-8.58,22-12.84l.83.65c-.36,1-.4,2.53-1.11,3-7.18,4.31-14.47,8.45-21.73,12.63Z" transform="translate(-211.61 -212.75)"/><path class="cls-17" d="M434.33,320.5c-.88,1-1.56,2.4-2.67,3.06-6.59,3.92-13.28,7.68-21,12.12.65-2,.66-3.65,1.4-4.1,6.94-4.24,14-8.28,21-12.37Z" transform="translate(-211.61 -212.75)"/><path class="cls-17" d="M429.81,333.67c-.55,1-.85,2.46-1.71,3-5.44,3.34-11,6.48-17.44,10.21.5-2,.42-3.59,1.08-4,5.63-3.48,11.4-6.73,17.13-10.06Z" transform="translate(-211.61 -212.75)"/><path class="cls-17" d="M411.29,401.22c.48-1.08.66-2.65,1.49-3.16,5.35-3.29,10.84-6.34,16.29-9.48l.95.87c-.85,1.2-1.45,2.82-2.6,3.53-4.93,3-10,5.83-15.06,8.71Z" transform="translate(-211.61 -212.75)"/><path class="cls-17" d="M411.47,368.15c-.34-3.2,3.09-5.86,11.67-9.31C423.58,361.93,418.89,365.73,411.47,368.15Z" transform="translate(-211.61 -212.75)"/><path class="cls-17" d="M424,380.7c-1.78,6.83-8.24,6.45-11.6,10.08C411.24,387.24,413.75,385.07,424,380.7Z" transform="translate(-211.61 -212.75)"/><path class="cls-17" d="M449.78,286.23V267.72c0-3.6-.13-7.21.07-10.8.07-1.14,1-2.23,1.54-3.34l1.41.39v4.59c0,8.07.08,16.15-.05,24.22,0,1.3-1,2.58-1.56,3.87Z" transform="translate(-211.61 -212.75)"/><path class="cls-17" d="M433.36,269.44v14.29c0,3.6.12,7.21-.07,10.81-.06,1.14-1,2.24-1.51,3.35l-1.26-.38c0-8.48,0-17,.09-25.44C430.62,271.44,431.85,270.84,433.36,269.44Z" transform="translate(-211.61 -212.75)"/><path class="cls-17" d="M413.91,281.74c0,8.84.06,16.55-.07,24.26,0,1-1,2.07-1.5,3.11l-1.27-.33c0-8.23,0-16.45.09-24.67C411.17,283.52,412.48,282.94,413.91,281.74Z" transform="translate(-211.61 -212.75)"/><path class="cls-17" d="M423.51,282.32c.87,17.83.72,19.25-2.84,21.46,0-6.86-.06-13.36.06-19.86,0-1.13.8-2.24,1.23-3.36Z" transform="translate(-211.61 -212.75)"/><path class="cls-17" d="M440.55,292.12c-1.5-7.14-.68-13.05,1.95-14.17C444.21,284.33,443.32,290.77,440.55,292.12Z" transform="translate(-211.61 -212.75)"/><path class="cls-11" d="M576.37,335.67v10.5c0,8.85-.07,17.71.11,26.56a5,5,0,0,1-2.85,5q-51.69,29.72-103.3,59.54c-7.55,4.35-15.1,8.72-23.07,13.33a25.55,25.55,0,0,1-.37-3c0-11.47,0-22.94-.12-34.41a4.65,4.65,0,0,1,2.75-4.67q61.55-35.43,123-71C573.56,337,574.67,336.49,576.37,335.67Z" transform="translate(-211.61 -212.75)"/><path class="cls-24" d="M536,420.94c0-5.63-.09-10.45.08-15.25a3.75,3.75,0,0,1,1.77-2.5Q556,392.53,574.3,382a11.18,11.18,0,0,1,2-.56c0,5.32,0,10.34-.06,15.35,0,.54-.79,1.23-1.38,1.57C562.22,405.77,549.52,413.11,536,420.94Z" transform="translate(-211.61 -212.75)"/><path class="cls-13" d="M529.36,408.81c0,4.8.1,9.4-.08,14a4.1,4.1,0,0,1-1.67,2.91c-12.44,7.29-24.94,14.46-38.13,22.07,0-5.56-.07-10.57.08-15.57a3.35,3.35,0,0,1,1.66-2.17q18.39-10.68,36.87-21.22C528.27,408.72,528.56,408.81,529.36,408.81Z" transform="translate(-211.61 -212.75)"/><path class="cls-5" d="M446.92,472.35c0-5.7-.08-10.4.08-15.09a3.7,3.7,0,0,1,1.61-2.58c11-6.41,22-12.71,33-19,.18-.1.47,0,1.16,0,0,5,0,9.88,0,14.81a2.44,2.44,0,0,1-1.05,1.75C470.4,458.79,459.1,465.31,446.92,472.35Z" transform="translate(-211.61 -212.75)"/><path class="cls-25" d="M446.55,491.35a21.81,21.81,0,0,1,3.35-3c10.09-5.91,20.23-11.71,30.36-17.55L531,441.54q20.5-11.84,41-23.69c1.16-.67,2.41-1.19,3.62-1.78l.89,1a18.4,18.4,0,0,1-3.13,2.94c-8.91,5.22-17.89,10.32-26.82,15.48Q516.68,452.74,486.81,470,468.39,480.64,450,491.22a21.18,21.18,0,0,1-2.6,1.07Z" transform="translate(-211.61 -212.75)"/><path class="cls-25" d="M576.73,410A15,15,0,0,1,574,412.7q-47.43,27.54-94.92,55-14.85,8.58-29.75,17.11a12.42,12.42,0,0,1-2,.75l-.75-.74c.84-1,1.51-2.21,2.55-2.82q29.36-17.06,58.79-34l55.55-32.12c4.07-2.36,8.19-4.64,12.29-6.95Z" transform="translate(-211.61 -212.75)"/><path class="cls-25" d="M446.53,477.9a11.46,11.46,0,0,1,2.27-2.55q18.68-10.94,37.43-21.73Q511.58,439,537,424.34q17.92-10.36,35.85-20.73c1-.55,2-.94,3-1.4l.8.8c-.91,1-1.65,2.29-2.77,2.94-8.79,5.16-17.67,10.18-26.51,15.28q-29.88,17.25-59.77,34.53-20,11.55-40,23Z" transform="translate(-211.61 -212.75)"/></svg>