<svg id="图层_1" data-name="图层 1" xmlns="http://www.w3.org/2000/svg" viewBox="0 0 383.25 314.37"><defs><style>.cls-1{fill:#dce9fa;}.cls-2{fill:#698ed4;}.cls-3{fill:#cae1fe;}.cls-4{fill:#eee6e3;}.cls-5{fill:#6a8fd5;}.cls-6{fill:#f5f0f0;}.cls-7{fill:#4073c7;}.cls-8{fill:#fcde7e;}.cls-9{fill:#db636f;}.cls-10{fill:#85efa7;}</style></defs><title>apllo</title><path class="cls-1" d="M208.75,494.69V310.55l.73-.6c1.12,0,2.24-.11,3.36-.11H549.39c1.24,0,2.48.16,3.72.25q0,79.84,0,159.69a24.47,24.47,0,0,1-24.79,24.89q-53.11,0-106.21,0c1.55-2.41,2.05-4.83-1.17-6.09-4.26-1.67-8.68-2.94-13-4.38-1.67-.76-3.31-1.62-5-2.26q-33-12.36-66.1-24.67c-4.29-1.63-8.52-3.47-12.9-4.81-1.59-.49-4.27-.45-5.12.52s-1,3.72-.45,5.32c4.27,12.18,8.79,24.27,13.24,36.39Zm84.85-95.5c4.63,13.6,9,26.3,13.27,39,1,2.88,2.72,4.75,5.92,4.79s4.72-1.92,5.66-4.58q9.53-27.14,19-54.28c1.19-3.42-.26-6.52-3.27-7.68s-5.88.15-7.53,3.63a27.68,27.68,0,0,0-1.1,2.78c-2.75,7.88-5.47,15.76-8.23,23.64-1.37,3.9-2.81,7.79-4.52,12.54-.77-2.08-1.22-3.19-1.61-4.33-3.87-11.31-7.78-22.61-11.58-33.94-1-3-2.76-5-6.09-5s-4.76,2.14-5.75,5c-2.58,7.4-5.24,14.78-7.9,22.16-1.86,5.16-3.75,10.31-6,16.44-.83-2.3-1.26-3.45-1.67-4.6-3.92-11.29-7.86-22.58-11.73-33.89-.84-2.45-2.17-4.16-4.89-4.46-5-.56-7.7,3.25-5.85,8.71,6,17.57,12,35.09,18,52.66,1,3,2.53,5.17,5.93,5.29s5-2.25,6-5.13q3.76-10.56,7.53-21.11C289.27,411.17,291.3,405.58,293.6,399.19Zm231.47,20.2c-4.62-13.58-8.93-26.18-13.19-38.8-1-2.88-2.62-4.82-5.83-4.88s-4.92,1.8-5.92,4.71c-2.22,6.47-4.57,12.91-6.88,19.36s-4.53,12.6-7,19.53c-.63-1.7-1-2.71-1.37-3.72q-5.93-17.11-11.86-34.24c-1.55-4.46-4.57-6.17-8.24-4.75-3.08,1.18-4.13,4.39-2.71,8.54,6,17.55,12.08,35.08,18.06,52.64,1,3,2.67,5.2,6,5.18s5-2.28,6-5.25c2.77-8,5.65-16,8.51-23.93,1.6-4.46,3.23-8.91,5.21-14.36.85,2.28,1.3,3.4,1.69,4.55,3.92,11.42,7.86,22.84,11.72,34.28,1,2.93,2.83,4.78,5.95,4.7,2.94-.07,4.7-1.88,5.62-4.67,1.2-3.66,2.56-7.28,3.85-10.92q7.26-20.6,14.51-41.22a19.07,19.07,0,0,0,.86-2.85c.62-3.47-.86-6-4.08-7a5.57,5.57,0,0,0-6.88,3.58c-2.43,6.4-4.61,12.9-6.89,19.35S527.64,412.1,525.07,419.39ZM419.89,419c-.76-1.95-1.23-3-1.61-4.14-3.83-11.19-7.68-22.37-11.43-33.58-1-3.09-2.57-5.47-6.14-5.55s-5,2.26-6,5.17c-2.3,6.58-4.67,13.14-7,19.7-2.12,5.89-4.26,11.78-6.72,18.59-.81-2.1-1.26-3.21-1.65-4.33q-5.9-16.94-11.77-33.87c-1.39-4-4.17-5.55-7.71-4.45-3.12,1-4.4,4.09-3.27,8,.17.6.36,1.19.57,1.78,5.88,17.07,11.8,34.12,17.61,51.21,1.06,3.12,2.57,5.48,6.16,5.45s4.91-2.45,5.92-5.32q4.11-11.62,8.26-23.23c1.72-4.8,3.49-9.58,5.52-15.16,4.57,13.35,8.85,25.69,13,38.08,1,3.08,2.44,5.57,6,5.63s5.12-2.49,6.16-5.5c2.28-6.59,4.63-13.16,6.93-19.73,3.95-11.28,7.94-22.55,11.81-33.85a5.71,5.71,0,0,0-3.21-7.4c-2.94-1.21-5.78,0-7.42,3.14a24.78,24.78,0,0,0-1.28,3.11c-2.76,7.87-5.48,15.75-8.23,23.63C423,410.31,421.6,414.22,419.89,419Z" transform="translate(-208.75 -243.96)"/><path class="cls-2" d="M208.75,262.64c.87-1.88,1.64-3.82,2.63-5.64,4.66-8.51,11.93-12.95,21.58-13,30.29-.11,60.59,0,90.88,0H548.63c1.49,0,3,.06,4.48.09l-.05,65.67.05.36c-1.24-.09-2.48-.25-3.72-.25H212.84c-1.12,0-2.24.07-3.36.11l-.73-.15Zm76.14,3.7A10.67,10.67,0,0,0,274.19,277,10.91,10.91,0,0,0,285,287.66a10.56,10.56,0,0,0,10.57-10.78A10.41,10.41,0,0,0,284.89,266.34Zm-22.24,10.55a10.45,10.45,0,0,0-10.74-10.54,10.68,10.68,0,0,0-10.71,10.7c-.08,5.6,5.05,10.63,10.87,10.65A10.71,10.71,0,0,0,262.65,276.89Zm55.28,10.53c6.3,0,10.58-4.23,10.6-10.49a10.39,10.39,0,0,0-10.65-10.57,10.53,10.53,0,1,0,.05,21.06Z" transform="translate(-208.75 -243.96)"/><path class="cls-3" d="M345.74,533.6c-37.67,0-75.33-.12-113,.1-9.84.06-20.09-7-22.75-16.17a18,18,0,0,0-1.25-2.63V494.69H331.51c3,7.84,6,15.66,8.95,23.54C342.33,523.31,344,528.47,345.74,533.6Z" transform="translate(-208.75 -243.96)"/><path class="cls-3" d="M208.75,309.8l.73.15-.73.6Z" transform="translate(-208.75 -243.96)"/><path class="cls-3" d="M592,309.74q0,101,0,202c0,11.12-11.18,21.85-22.48,21.85q-75.19,0-150.39,0l-2.24,0c-1-.9-2.08-1.77-3.06-2.71q-7.1-6.88-14.16-13.81,11.22-11.22,22.43-22.46,53.1,0,106.21,0a24.47,24.47,0,0,0,24.79-24.89q0-79.85,0-159.69l-.05-.36Z" transform="translate(-208.75 -243.96)"/><path class="cls-4" d="M422.07,494.67q-11.22,11.24-22.43,22.46L390.31,526c5.49,5.54,10.53,10.86,15.91,15.8.79.72,3.57.19,4.8-.66,2.42-1.67,4.41-4,6.58-6,7.37,6.28,8.53,7.52,1.07,14.32-2.49,2.26-4.84,4.68-7.14,7.13s-4.35,2.3-6.66,0c-6.37-6.5-12.87-12.87-19.26-19.35a31.08,31.08,0,0,1-2.69-3.84c-4.84,4.9-8.84,9-12.85,13q-4.47,4.52-9,9c-3.63,3.6-5.67,3.19-7.52-1.65-2.13-5.57-4.1-11.2-6.19-16.79a32,32,0,0,0-1.63-3.26c-1.75-5.13-3.41-10.29-5.28-15.37-2.91-7.88-6-15.7-8.95-23.54-4.45-12.12-9-24.21-13.24-36.39-.56-1.6-.51-4.22.45-5.32s3.53-1,5.12-.52c4.38,1.34,8.61,3.18,12.9,4.81,2.07,6.1,4,12.24,6.22,18.28q8.66,23.58,17.54,47.08c2.1,5.56,3.54,5.77,7.7,1.61,7.4-7.39,14.81-14.76,22.18-22.19,5.86-5.91,11.66-11.9,17.49-17.85,4.35,1.44,8.77,2.71,13,4.38C424.12,489.84,423.62,492.26,422.07,494.67Z" transform="translate(-208.75 -243.96)"/><path class="cls-5" d="M293.6,399.19c-2.3,6.39-4.33,12-6.33,17.57q-3.78,10.55-7.53,21.11c-1,2.88-2.52,5.25-6,5.13s-4.92-2.31-5.93-5.29c-6-17.57-12-35.09-18-52.66-1.85-5.46.81-9.27,5.85-8.71,2.72.3,4.05,2,4.89,4.46,3.87,11.31,7.81,22.6,11.73,33.89.41,1.15.84,2.3,1.67,4.6,2.23-6.13,4.12-11.28,6-16.44,2.66-7.38,5.32-14.76,7.9-22.16,1-2.82,2.48-5,5.75-5s5.07,2,6.09,5c3.8,11.33,7.71,22.63,11.58,33.94.39,1.14.84,2.25,1.61,4.33,1.71-4.75,3.15-8.64,4.52-12.54,2.76-7.88,5.48-15.76,8.23-23.64a27.68,27.68,0,0,1,1.1-2.78c1.65-3.48,4.45-4.82,7.53-3.63s4.46,4.26,3.27,7.68q-9.45,27.17-19,54.28c-.94,2.66-2.55,4.62-5.66,4.58s-5-1.91-5.92-4.79C302.56,425.49,298.23,412.79,293.6,399.19Z" transform="translate(-208.75 -243.96)"/><path class="cls-5" d="M525.07,419.39c2.57-7.29,4.82-13.74,7.09-20.18s4.46-12.95,6.89-19.35a5.57,5.57,0,0,1,6.88-3.58c3.22,1.05,4.7,3.54,4.08,7a19.07,19.07,0,0,1-.86,2.85q-7.26,20.63-14.51,41.22c-1.29,3.64-2.65,7.26-3.85,10.92-.92,2.79-2.68,4.6-5.62,4.67-3.12.08-4.95-1.77-5.95-4.7-3.86-11.44-7.8-22.86-11.72-34.28-.39-1.15-.84-2.27-1.69-4.55-2,5.45-3.61,9.9-5.21,14.36-2.86,8-5.74,15.93-8.51,23.93-1,3-2.63,5.23-6,5.25s-5-2.19-6-5.18c-6-17.56-12.05-35.09-18.06-52.64-1.42-4.15-.37-7.36,2.71-8.54,3.67-1.42,6.69.29,8.24,4.75q6,17.11,11.86,34.24c.35,1,.74,2,1.37,3.72,2.5-6.93,4.77-13.23,7-19.53s4.66-12.89,6.88-19.36c1-2.91,2.7-4.77,5.92-4.71s4.86,2,5.83,4.88C516.14,393.21,520.45,405.81,525.07,419.39Z" transform="translate(-208.75 -243.96)"/><path class="cls-5" d="M419.89,419c1.71-4.77,3.14-8.68,4.52-12.61,2.75-7.88,5.47-15.76,8.23-23.63a24.78,24.78,0,0,1,1.28-3.11c1.64-3.17,4.48-4.35,7.42-3.14a5.71,5.71,0,0,1,3.21,7.4c-3.87,11.3-7.86,22.57-11.81,33.85-2.3,6.57-4.65,13.14-6.93,19.73-1,3-2.51,5.57-6.16,5.5s-5-2.55-6-5.63c-4.15-12.39-8.43-24.73-13-38.08-2,5.58-3.8,10.36-5.52,15.16q-4.15,11.61-8.26,23.23c-1,2.87-2.47,5.3-5.92,5.32s-5.1-2.33-6.16-5.45c-5.81-17.09-11.73-34.14-17.61-51.21-.21-.59-.4-1.18-.57-1.78-1.13-3.92.15-7,3.27-8,3.54-1.1,6.32.46,7.71,4.45q5.91,16.93,11.77,33.87c.39,1.12.84,2.23,1.65,4.33,2.46-6.81,4.6-12.7,6.72-18.59,2.36-6.56,4.73-13.12,7-19.7,1-2.91,2.52-5.24,6-5.17s5.1,2.46,6.14,5.55c3.75,11.21,7.6,22.39,11.43,33.58C418.66,416,419.13,417,419.89,419Z" transform="translate(-208.75 -243.96)"/><path class="cls-6" d="M407.87,484.2c-5.83,5.95-11.63,11.94-17.49,17.85-7.37,7.43-14.78,14.8-22.18,22.19-4.16,4.16-5.6,4-7.7-1.61q-8.89-23.49-17.54-47.08c-2.22-6-4.15-12.18-6.22-18.28q33.06,12.33,66.1,24.67C404.56,482.58,406.2,483.44,407.87,484.2Z" transform="translate(-208.75 -243.96)"/><path class="cls-7" d="M592,309.74h-38.9q0-32.83.05-65.67c6.95.2,14-.41,20.82.79,10.67,1.88,18,11.79,18.06,22.63C592,281.57,592,295.66,592,309.74Z" transform="translate(-208.75 -243.96)"/><path class="cls-6" d="M417.6,535.1c-2.17,2-4.16,4.35-6.58,6-1.23.85-4,1.38-4.8.66-5.38-4.94-10.42-10.26-15.91-15.8l9.33-8.85q7.08,6.92,14.16,13.81c1,.94,2,1.81,3.06,2.71Z" transform="translate(-208.75 -243.96)"/><path class="cls-8" d="M284.89,266.34a10.41,10.41,0,0,1,10.71,10.54A10.56,10.56,0,0,1,285,287.66,10.91,10.91,0,0,1,274.19,277,10.67,10.67,0,0,1,284.89,266.34Z" transform="translate(-208.75 -243.96)"/><path class="cls-9" d="M262.65,276.89a10.71,10.71,0,0,1-10.58,10.81c-5.82,0-10.95-5.05-10.87-10.65a10.68,10.68,0,0,1,10.71-10.7A10.45,10.45,0,0,1,262.65,276.89Z" transform="translate(-208.75 -243.96)"/><path class="cls-10" d="M317.93,287.42a10.53,10.53,0,1,1-.05-21.06,10.39,10.39,0,0,1,10.65,10.57C328.51,283.19,324.23,287.42,317.93,287.42Z" transform="translate(-208.75 -243.96)"/></svg>