<?xml version="1.0" encoding="utf-8"?>
<!-- Generator: Adobe Illustrator 26.3.1, SVG Export Plug-In . SVG Version: 6.00 Build 0)  -->
<svg version="1.1" id="图层_1" xmlns="http://www.w3.org/2000/svg" xmlns:xlink="http://www.w3.org/1999/xlink" x="0px" y="0px"
	 viewBox="0 0 256 256" style="enable-background:new 0 0 256 256;" xml:space="preserve">
<style type="text/css">
	.st0{fill:#F84F8A;}
	.st1{fill:#FFFFFF;}
</style>
<g>
	<path class="st0" d="M202.4,256H53.6C24,256,0,232,0,202.4V53.6C0,24,24,0,53.6,0h148.8C232,0,256,24,256,53.6v148.8
		C256,232,232,256,202.4,256z"/>
	<g>
		<path class="st1" d="M43.5,127.9c0-14.7,0.2-29.4-0.2-44.1c-0.2-4.4,1.5-7.2,5.1-9.2c7.4-4.4,14.8-8.8,22.3-13.3
			c16.9-10.1,33.9-20,50.7-30.2c4.5-2.7,8.7-2.7,13.1-0.2c12.1,7.2,24.2,14.4,36.3,21.6c11.8,7,23.5,14.1,35.3,21
			c4.6,2.7,6.5,6.7,6.5,11.8c0,20.8,0,41.6,0,62.4c0,7.6-0.2,15.3,0,22.8c0.2,5.2-1.8,9.1-6.5,11.8C187.7,193,169.1,204,150.6,215
			c-5.6,3.3-11.4,6.7-17,10.1c-3.9,2.4-7.4,2.3-11.4-0.2c-16.6-9.9-33.2-19.8-49.9-29.8c-7.7-4.6-15.3-9.2-22.9-13.8
			c-0.9-0.5-1.9-1.2-2.8-1.8c-2.2-1.5-3.2-3.5-3.2-6.2c0-4.6,0-9.4,0-13.9C43.5,149.1,43.5,138.6,43.5,127.9z M182.3,82.3
			c-1.4-0.9-2.4-1.5-3.5-2.2c-9.9-6-20.1-11.9-30.1-17.8c-5.2-3-10.5-6.2-15.8-9.4c-3.5-2.2-7-2.5-10.6-0.3
			c-1.4,0.9-2.9,1.8-4.5,2.5c-17.4,10.3-35,20.6-52.4,30.8c-2.9,1.8-4.4,4.1-4.4,7.7c0.2,22.9,0.2,45.8,0,68.8c0,3.2,1.2,5.2,4,6.9
			c19.2,11.4,38.3,22.8,57.4,34.3c3.3,1.9,6.2,1.9,9.4,0c19-11.3,38.1-22.5,57.1-33.6c2.9-1.7,4.4-4.2,4.4-7.4c0-5.2,0-10.5,0-15.8
			c0-0.8-0.3-1.4-0.5-2.4c-1.3,0.8-2.3,1.3-3.2,1.8c-5.4,3.3-10.9,6.7-16.3,10.1c-14.1,8.7-28,17.5-42.1,26.2c-1,0.7-2,1-3.2,1.7
			c-0.3-0.8-0.4-1.2-0.4-1.5c0-4.9-0.2-9.7,0-14.6c0.3-4.9,2.8-8.6,6.9-11.1c18-11.1,35.9-22.4,54.1-33.5c3.5-2.2,5.2-5.2,5.4-9.2
			c0.2-4.4,0-8.7,0-13.1c0-0.7-0.3-1.3-0.5-2.2c-22,13.4-43.3,27-65.3,40.3c-0.3-0.8-0.5-1.2-0.5-1.5c0-5.5-0.2-11,0-16.4
			c0.2-3.5,1.9-6.5,5.1-8.4c2.3-1.4,4.7-2.8,7-4.2c13.1-8.1,26.5-16.3,39.6-24.3C180.3,83.7,181.1,83.2,182.3,82.3z"/>
		<g>
			<path class="st1" d="M91,156.8c-0.9-0.6-0.6-2.4-0.9-3.6c-2.1-6-7.5-4.2-11.5-3.9c-5.1,0.6-4.2,4.8-3.6,8.4
				c1.5,8.7,9,14.2,19.8,14.2c11.1,0,18.6-4.5,20.7-12.1c2.7-10.2-0.6-16.9-11.1-23.2c-3-1.8-6.6-3-9-5.4c-1.8-1.8-2.7-4.8-3.3-7.2
				c0-0.6,2.7-2.7,3-2.4c1.8,1.2,3.9,2.7,5.1,4.5c3.3,6.3,8.4,3,12.6,2.7c0.9,0,2.1-6.3,1.2-9c-3-9.9-14.7-14.2-26.5-10.5
				c-13.5,4.2-17.4,19-7.2,28.8c3.3,3.3,7.8,5.4,11.7,8.1c2.4,1.8,5.4,3.9,6.9,6.3c0.9,1.5-1.2,4.2-1.8,6.6
				C95.2,158.6,92.9,158,91,156.8z"/>
		</g>
	</g>
</g>
</svg>
