<?xml version="1.0" encoding="utf-8"?>
<!-- Generator: Adobe Illustrator 26.3.1, SVG Export Plug-In . SVG Version: 6.00 Build 0)  -->
<svg version="1.1" id="图层_1" xmlns="http://www.w3.org/2000/svg" xmlns:xlink="http://www.w3.org/1999/xlink" x="0px" y="0px"
	 viewBox="0 0 256 256" style="enable-background:new 0 0 256 256;" xml:space="preserve">
<style type="text/css">
	.st0{fill:#49718A;}
	.st1{fill:#EFD5B6;}
	.st2{fill:#335061;}
	.st3{fill:#FEFEFE;}
	.st4{fill:#D23833;}
	.st5{fill:#335060;}
	.st6{fill:#FDFDFD;}
	.st7{fill:#F5E2CB;}
	.st8{fill:#6D6B6D;}
	.st9{fill:#DAD7D6;}
	.st10{fill:#ED3D3A;}
	.st11{fill:#80AFC2;}
	.st12{fill:#EC3C3A;}
	.st13{fill:#F4E2CB;}
	.st14{fill:#48718A;}
	.st15{fill:#FCFCFC;}
	.st16{fill:#D9D6D5;}
	.st17{fill:#D8D5D5;}
	.st18{fill:#EDD2B4;}
	.st19{fill:#252122;}
	.st20{fill:#242021;}
</style>
<path class="st0" d="M197.81,247.14H58.19c-27.25,0-49.34-22.09-49.34-49.34V58.19c0-27.25,22.09-49.34,49.34-49.34h139.61
	c27.25,0,49.34,22.09,49.34,49.34v139.61C247.14,225.05,225.05,247.14,197.81,247.14z"/>
<g>
	<path d="M134.02,12.77c0-0.04,0-0.08,0.01-0.11c0.97,0,1.95,0,2.92,0c0,0.04,0,0.08,0.01,0.11C135.98,12.77,135,12.77,134.02,12.77
		z"/>
	<path d="M44.71,120.39c0.04,0.71,0.08,1.41-0.12,2.11c0-0.7,0-1.39,0-2.09C44.62,120.34,44.66,120.34,44.71,120.39z"/>
	<path d="M44.59,125.7c0.18,0.7,0.16,1.4,0.11,2.11c-0.05,0.05-0.09,0.04-0.11-0.02C44.59,127.1,44.59,126.4,44.59,125.7z"/>
	<path d="M44.59,127.79c0.03,0.04,0.07,0.04,0.11,0.02c0,0.37,0,0.73,0,1.1c0,0-0.06,0-0.06,0l-0.06-0.01
		C44.59,128.53,44.59,128.16,44.59,127.79z"/>
	<path d="M44.71,120.39c-0.04,0.01-0.08,0.01-0.12,0.02c0-0.32,0-0.65,0-0.97c0.04-0.01,0.08-0.01,0.12,0
		C44.7,119.75,44.7,120.07,44.71,120.39z"/>
	<g>
		<path d="M139.45,243.35c-1.21,0-2.41,0-3.62,0c-0.77-0.16-1.54-0.03-2.31-0.07c-0.31,0-0.63,0-0.94,0
			c-4.65,0.03-9.25-0.46-13.74-1.72c-3.22-0.91-2.61-0.47-3.71-3.39c-1.89-5.02-3.38-10.17-4.87-15.31
			c-0.53-1.83-1.05-3.66-1.6-5.47c-0.12-0.4-0.29-0.63-0.78-0.58c-3.18,0.31-6.29-0.17-9.34-1c-2.78-0.76-5.42-1.9-8.03-3.1
			c-2.95-1.36-5.79-2.94-8.76-4.24c-1.42-0.62-2.89-1.12-4.32-1.74c-2.17-0.93-3.04-2.63-3.21-4.87c-0.14-1.85-0.09-3.71-0.15-5.56
			c-0.07-2.22-0.23-4.44-0.41-6.66c-0.03-0.33-0.18-0.55-0.42-0.76c-1.49-1.29-2.9-2.66-4.28-4.07
			c-5.74-5.84-10.53-12.39-14.41-19.6c-2.33-4.32-4.25-8.81-5.8-13.47c-1.8-5.4-3.06-10.94-3.74-16.59c-0.25-2.1-0.28-4.2-0.34-6.31
			c0-0.35,0-0.71,0-1.06c-0.04-0.69,0.08-1.38-0.07-2.06c0-1.07,0-2.13,0-3.2c0.15-0.67,0.03-1.36,0.07-2.03c0-0.31,0-0.62,0-0.92
			c-0.04-4.94,0.71-9.79,1.78-14.6c1.25-5.61,3.06-11.04,5.41-16.28c3.34-7.46,7.63-14.31,12.93-20.53c1.84-2.16,3.76-4.22,5.79-6.2
			c1.13-1.1,2.29-2.17,3.51-3.17c0.49-0.4,0.68-0.85,0.72-1.48c0.19-3.56,0.72-7.06,2.21-10.35c1.2-2.65,2.96-4.81,5.54-6.23
			c0.38-0.21,0.67-0.46,0.8-0.9c1.51-5.27,4.88-9.13,9.32-12.17c3.32-2.27,6.92-4.05,10.35-6.12c4.54-2.74,9.46-4.59,14.44-6.31
			c3.63-1.25,7.38-2.01,11.2-2.33c1.84-0.15,3.7-0.2,5.55-0.16c0.87,0,1.74,0,2.61,0c5.87-0.12,11.59,0.72,17.15,2.6
			c5.11,1.73,9.58,4.49,13.51,8.19c3.1,2.91,6.05,5.94,8.69,9.28c2.76,3.47,4.54,7.42,5.82,11.63c1.45,4.77,2.28,9.65,2.69,14.61
			c0.05,0.6,0.11,1.2,0.13,1.8c0.02,0.55,0.22,0.99,0.65,1.39c2.24,2.12,4.29,4.43,6.26,6.8c4.34,5.24,8.01,10.92,10.98,17.04
			c3.95,8.13,6.59,16.67,7.84,25.64c0.49,3.54,0.75,7.09,0.84,10.66c0.32,13.4-2.36,26.17-7.93,38.35c-0.92,2.01-1.93,3.96-3,5.89
			c-0.44,0.79-0.44,0.82,0.33,1.3c1.59,0.99,2.73,2.38,3.48,4.06c2.03,4.52,3.58,9.21,4.71,14.03c0.51,2.16,0.33,4.34-0.01,6.5
			c-0.44,2.82-1.25,5.51-2.67,8.01c-1.34,2.35-3.22,3.93-5.93,4.53c-3.22,0.72-6.46,0.89-9.74,0.63c-1.34-0.11-2.67-0.31-4-0.48
			c-1.11-0.14-2.05-0.57-2.56-1.57c-0.6-1.18-1.51-1.38-2.73-1.35c-2.71,0.06-5.35,0.37-7.91,1.33c-0.73,0.27-1.19,0.63-1.26,1.51
			c-0.12,1.49-1.09,2.41-2.43,2.83c-1.1,0.34-1.51,0.95-1.57,2.09c-0.09,1.9,0.22,3.74,0.59,5.58c0.52,2.59,1.3,5.13,1.61,7.76
			c0.13,1.09,0.14,2.17-0.03,3.26c-0.27,1.72-1.27,2.9-2.74,3.72c-1.54,0.87-3.26,1.18-4.96,1.55c-1.08,0.24-1.07,0.23-1.09,1.35
			c-0.02,0.98,0.05,1.95,0.23,2.91c0.28,1.47-0.2,2.64-1.22,3.66c-1.54,1.54-3.45,2.34-5.54,2.69c-2.35,0.39-4.73,0.61-7.12,0.67
			c-1.67,0.04-3.33,0.14-5,0.13C141.77,243.32,140.61,243.19,139.45,243.35z"/>
		<path d="M143.08,243.22c-0.01,0.03-0.03,0.06-0.04,0.09c0,0.01,0.02,0.03,0.03,0.05c-1.21,0-2.41,0-3.62,0
			C140.66,243.14,141.87,243.18,143.08,243.22z"/>
		<path d="M133.46,243.22c0.8-0.03,1.59-0.09,2.38,0.12c-0.79,0-1.58,0-2.36,0c-0.05-0.02-0.07-0.05-0.06-0.08
			C133.43,243.24,133.44,243.22,133.46,243.22z"/>
		<path d="M133.46,243.22c0.02,0.04,0.03,0.08,0.01,0.12c-0.32,0-0.65,0-0.97,0c0-0.04,0-0.08-0.01-0.11
			C132.82,243.23,133.14,243.23,133.46,243.22z"/>
	</g>
	<path class="st1" d="M128.9,125.35c-1.99-0.36-3.99-0.54-5.99-0.07c-1.25,0.29-2.37,0.81-3.05,1.98c-0.15,0.26-0.34,0.27-0.58,0.25
		c-2.65-0.21-5.3-0.36-7.91-0.9c-4.78-4.07-7.96-9.22-10.16-15.04c-1.91-5.04-3.01-10.27-3.47-15.64c-0.12-1.37-0.62-2.45-1.9-3.08
		c-0.63-0.33-1.21-0.01-1.78,0.18c-0.75,0.26-1.38,0.77-1.96,1.29c-2.11,1.93-4.47,1.89-6.91,0.84c-1.35-0.58-2.51-1.46-3.46-2.6
		c-0.05-0.04-0.09-0.09-0.13-0.14l-0.01-0.01c-1.78-2.43-1.85-5.2-1.59-8.02c0.19-2.03,0.83-3.97,1.16-5.98
		c0.36-0.99,1.12-1.56,2.07-1.9c0.42-0.15,0.89-0.13,1.24,0.21c0.35,0.34,0.13,0.74,0.02,1.11c-0.81,2.74-0.83,5.48,0.1,8.19
		c0.14,0.41,0.28,0.83,0.62,1.14c0.3-0.39,0.01-0.78,0-1.17c-0.05-1.74,0.06-3.47,0.33-5.19c0.11-0.69,0.34-1.35,0.76-1.92
		c0.78-1.05,2.06-1.18,3.02-0.3c0.63,0.57,1.04,1.3,1.38,2.07c0.37,0.83,0.73,1.65,1.25,2.4c0.11,0.17,0.22,0.41,0.46,0.34
		c0.21-0.07,0.14-0.32,0.16-0.49c0.28-3.33-0.84-6.04-3.58-8.02c-0.24-0.17-0.53-0.31-0.49-0.69c0.24-0.24,0.52-0.17,0.78-0.09
		c1.4,0.43,2.73,1.02,4.03,1.69c0.23,0.12,0.33,0.39,0.59,0.46c0.2,0.78,0.45,1.56,0.59,2.35c0.1,0.57,0.34,0.74,0.91,0.73
		c1.72-0.04,3.43-0.09,5.03-0.8c1.45-0.64,1.73-1.1,1.58-2.65c-0.16-1.64-0.48-3.27-1-4.82c-1.58-4.69-1.33-9.38-0.19-14.1
		c0.43-1.77,0.79-3.56,1.18-5.34c2.05-6.32,5.61-11.71,10.26-16.38c5.24-5.26,11.56-8.6,18.81-10.19c3.78-0.83,7.61-1.38,11.47-1.66
		c5.81-0.41,11.56-0.1,17.2,1.51c0.81,0.23,1.52,0.68,2.31,0.94c2.44,1.69,4.4,3.86,6.29,6.12c0.61,0.73,1.16,1.49,1.74,2.24
		c-0.26,0.37-0.69,0.33-1.06,0.41c-1.95,0.45-3.68,1.26-4.89,2.92c-1.14,1.56-1.57,3.33-1.22,5.25c0.13,0.73,0.19,0.74,0.85,0.46
		c0.16-0.06,0.31-0.11,0.45,0.02c0,0.89,0.23,0.92,0.97,0.42c2.1-1.44,4.41-1.39,6.72-0.6c5.08,1.74,7.87,5.45,8.53,10.66
		c1.79,14.01,1.75,27.92-2.7,41.55c-2.46,7.53-6.44,14.19-11.2,20.42c-2.17,2.84-5.3,4.45-8.38,6.06
		c-4.75,2.48-9.75,4.12-15.18,4.22c-5.25,0.1-9.86-1.86-14.26-4.43c-5.41-3.16-9.48-7.74-13.19-12.69c-1.27-1.69-2.49-3.4-3.74-5.1
		c-0.11-0.15-0.27-0.28-0.41-0.42c-0.01,0.2-0.05,0.4-0.02,0.6c0.21,1.92,0.8,3.74,1.83,5.35c3.67,5.74,8.21,10.68,13.72,14.71
		c0.61,0.45,1.32,0.76,1.99,1.13C128.94,125.21,128.94,125.28,128.9,125.35z"/>
	<path class="st2" d="M101.36,129.31c2.29,2.63,5.44,3.97,8.4,5.57c2.5,1.36,5.11,2.52,7.68,3.75c0.49,0.24,0.82,0.46,0.94,1.12
		c0.85,4.9,2.31,9.63,3.99,14.3c0.27,0.76,0.64,1.5,1.17,2.12c1.41,1.69,2.98,1.99,5.25,1.04c0.19-0.08,0.42-0.35,0.6-0.14
		c0.08,0.1-0.05,0.44-0.15,0.64c-0.49,0.98-1.2,1.82-1.82,2.7c-0.75,1.06-1.37,2.16-1.03,3.54c0.32,1.29,1.4,1.85,2.4,2.46
		c1.38,0.85,2.88,1.48,4.33,2.21c3.91,1.97,7.82,3.94,11.93,5.48c0.14,0.05,0.24,0.17,0.36,0.26c-0.15,0.02-0.3,0.05-0.45,0.06
		c-4.8,0.24-9.61,0.39-14.41,0.73c-6.36,0.44-12.71,1.05-19.03,1.9c-0.23,0.03-0.46,0.02-0.69,0.02c-0.38-0.32-0.29-0.76-0.29-1.16
		c-0.01-4.96-0.02-9.91,0.01-14.87c0-0.82-0.21-1.47-0.74-2.08c-0.62-0.71-1.2-1.47-1.82-2.18c-0.31-0.36-0.36-0.85-0.72-1.16
		c-0.2-0.43-0.28-0.98-0.93-0.96c-0.63,0.02-0.94,0.48-1.15,0.98c-0.77,1.88-0.71,3.85-0.55,5.82c0.32,4.19,1.06,8.37,0.34,12.58
		c-0.43,2.52-0.8,2.66-2.96,1.24c-1.04-0.69-2.01-1.48-3.13-2.06c-0.55-0.28-0.73-0.12-0.81,0.42c-0.15,0.98,0.32,1.7,0.93,2.36
		c1.43,1.55,1.08,2.68-0.99,3.18c-0.43,0.1-0.86,0.18-1.29,0.29c-1.08,0.27-1.75,0.9-1.81,2.07c-0.11,0.14-0.26,0.17-0.42,0.22
		c-0.18,0.06-0.49-0.08-0.52,0.16c-0.02,0.18,0.29,0.27,0.45,0.39c0.22,0.16,0.48,0.29,0.69,0.47c1.25,1.1,2.72,1.58,4.36,1.76
		c1.89,0.2,3.75,0.57,5.63,0.86c0.33,0.05,0.64,0.12,0.84,0.42c0.38,3.17,0.72,6.33,1.13,9.5c0.55,4.31,1.15,8.61,1.73,12.91
		c0.11,0.85,0.17,1.71,0.37,2.54c0.19,0.8-0.15,0.88-0.8,0.83c-2.68-0.21-5.31-0.67-7.9-1.39c-5.63-1.56-10.72-4.32-15.83-7.05
		c-1.06-0.57-2.12-1.14-3.17-1.71c-0.29-0.33-0.16-0.71-0.09-1.06c0.41-2.05,0.58-4.12,0.67-6.21c0.06-1.32,0.16-2.64,0.1-3.96
		c-0.13-2.84-0.23-5.69-0.5-8.53c-0.37-3.85-0.83-7.69-1.4-11.52c-0.56-3.71-1.2-7.41-1.89-11.1c-1.03-5.47-2.18-10.91-3.49-16.31
		c-0.03-0.14-0.06-0.27-0.08-0.41c-0.2-1.13-0.11-1.32,0.91-1.78c4.09-1.86,8.2-3.68,12.3-5.51c4.14-1.86,8.29-3.72,12.44-5.56
		C100.72,129.39,101.02,129.25,101.36,129.31z"/>
	<path class="st3" d="M139.03,238.44c-6.78-0.04-13.42-1.05-19.93-2.93c-0.3-0.09-0.43-0.26-0.53-0.56
		c-3.54-10.92-6.18-22.06-8.07-33.38c-1.05-6.27-1.85-12.56-2.61-18.87c-0.1-0.85,0.32-0.86,0.9-0.97
		c10.47-1.87,20.99-3.08,31.64-2.95c2.92,0.04,5.84,0.21,8.73,0.6c0.33,0.05,0.67,0.13,1,0.19c0.2,0.2,0.26,0.44,0.21,0.7
		c-0.12,0.74-0.08,1.48-0.06,2.22c0.08,3.11-0.28,6.21-0.13,9.31c0.13,2.76,0.05,5.51,0.15,8.27c0.08,2.2,0.14,4.4,0.28,6.59
		c0.21,3.49,0.45,6.97,0.78,10.45c0.46,4.8,1.09,9.57,1.97,14.3c0.2,1.05,0.04,1.32-0.9,1.85c-3.74,2.08-7.7,3.62-11.8,4.83
		C140.12,238.26,139.54,238.2,139.03,238.44z"/>
	<path class="st4" d="M72.68,76.42c-0.31,4.46,0.31,8.78,1.91,12.96c1.82,4.76,4.67,8.62,9.44,10.8c1.1,0.5,2.25,0.87,3.44,1.08
		c0.45,0.08,0.6,0.29,0.64,0.73c0.33,3.59,1.44,6.92,3.44,9.94c0.73,1.1,1.45,2.21,1.77,3.53c0.29,1.21,0.07,2.23-1.03,2.99
		c-3.15,2.19-6.58,3.89-9.86,5.85c-4.22,2.52-8.5,4.93-12.49,7.81c-1.19,0.86-2.56,1.4-3.86,2.06c-0.83,0.42-1.64,0.86-2.36,1.45
		c-1.69,1.37-2.01,3.2-1.67,5.22c0.67,3.94,2.39,7.54,3.62,11.3c1.45,4.45,3.52,8.68,4.77,13.2c1.41,5.11,2.21,10.32,2.79,15.58
		c0.02,0.16,0.13,0.44-0.07,0.48c-0.12,0.03-0.33-0.21-0.46-0.35c-7.87-8.05-13.81-17.34-17.8-27.87
		c-2.25-5.92-3.78-12.01-4.57-18.29c0.03-0.04,0.03-0.09-0.01-0.13c-0.01-0.14-0.03-0.27-0.04-0.41c0.1-2.01,0.21-4.01,0.43-6.02
		c0.54-5.01,1.36-9.96,2.54-14.86c1.76-7.31,4.22-14.37,7.68-21.05c2.6-5.02,5.71-9.71,9.42-13.98c0.52-0.6,1.04-1.18,1.6-1.74
		C72.13,76.49,72.32,76.21,72.68,76.42z"/>
	<path class="st4" d="M178.13,171.93c-0.11-0.42,0.15-0.76,0.29-1.12c3.71-9.9,6.78-20.01,9.86-30.12c0.75-2.46,1.61-4.88,2-7.44
		c0.37-2.4-0.4-4.33-2.03-6c-2.45-2.51-5.17-4.71-7.81-7.02c-1.83-1.6-3.7-3.16-5.39-4.93c-1.09-1.14-1.24-2.32-0.6-3.74
		c0.98-2.16,2.44-4.06,3.4-6.22c2.43-5.53,3.85-11.36,5-17.26c1.17-6.02,1.73-12.11,1.93-18.23c0.01-0.19-0.13-0.46,0.13-0.54
		c0.08-0.03,0.27,0.21,0.39,0.35c10,11.12,16.54,24.02,19.32,38.71c3.84,20.35,0.6,39.56-9.83,57.51c-0.37,0.64-0.81,0.84-1.53,0.91
		c-3.76,0.35-7.26,1.64-10.69,3.12c-1.49,0.64-2.95,1.33-4.42,2L178.13,171.93z"/>
	<path class="st0" d="M101.36,129.31c-2.07,0.96-4.14,1.95-6.23,2.89c-5.03,2.26-10.06,4.49-15.09,6.74
		c-1.52,0.68-3.03,1.4-4.57,2.04c-0.54,0.22-0.62,0.5-0.5,1.01c1.27,5.36,2.45,10.73,3.48,16.14c1.07,5.63,2.04,11.28,2.73,16.97
		c0.54,4.38,0.94,8.77,1.13,13.19c0.19,4.44,0,8.83-0.87,13.18c-0.69-0.32-1.38-0.65-2.08-0.96c-0.46-0.2-0.36-0.63-0.38-0.96
		c-0.12-2.2-0.19-4.4-0.31-6.6c-0.58-10.22-1.89-20.33-4.24-30.3c-1.72-7.3-3.99-14.42-7.11-21.26c-0.17-0.37-0.39-0.7,0.11-1.08
		c7.28-5.6,14.69-11.01,22.97-15.09c1.45-0.72,2.96-1.31,4.43-2c0.52-0.24,0.9-0.16,1.31,0.23
		C98.04,125.26,99.67,127.31,101.36,129.31z"/>
	<path class="st5" d="M185.34,136.69c-1.92,10.76-5.6,20.97-9.71,31.04c-0.39,0.94-0.82,1.87-1.19,2.81
		c-0.74,1.88-2.23,2.71-4.13,2.9c-1.42,0.14-2.86,0.27-4.29,0.27c-2.15-0.01-4.25,0.13-6.25,1l0,0c0.85-1.88,2-3.59,3.07-5.35
		c3.76-6.23,7.62-12.39,11.24-18.69c0.32-0.55,0.29-0.99-0.09-1.45c-0.63-0.74-1.28-1.46-1.9-2.21c-0.54-0.64-0.68-1.29-0.33-2.15
		c1.44-3.57,1.39-7.33,1.15-11.09c-0.16-2.61-0.83-5.11-1.87-7.5c0.43-0.26,0.69,0.11,0.96,0.31c2.49,1.8,4.94,3.66,7.41,5.49
		c1.73,1.28,3.45,2.56,5.18,3.84C184.88,136.13,185.14,136.37,185.34,136.69z"/>
	<path class="st6" d="M178.8,177.31c1.69-1.17,3.64-1.79,5.55-2.46c2.99-1.04,6.03-1.94,8.77-3.6c1.01-0.61,2.16-0.5,3.23-0.1
		c1.82,0.68,3.29,1.84,4.16,3.59c1.25,2.5,1.93,5.19,2.52,7.91c0.36,3.57-0.79,6.85-1.98,10.13c-0.13,0.35-0.31,0.67-0.47,1.01
		c-0.22,0.47-0.6,0.69-1.11,0.7c-1.97,0.04-3.93-0.1-5.89-0.24c-1.06-0.08-2.13-0.09-3.19-0.13c-2.26-0.09-4.52-0.31-6.79-0.32
		c-0.6,0-1.19-0.14-1.8-0.16c-0.54-0.02-0.82-0.36-0.89-0.9c-0.55-4.76-1.43-9.48-2.2-14.2C178.65,178.12,178.52,177.7,178.8,177.31
		z"/>
	<path class="st7" d="M162.05,25.86c-0.86,0.01-1.59-0.46-2.38-0.69c-3.24-0.9-6.53-1.41-9.9-1.54c-8.02-0.33-15.87,0.59-23.49,3.11
		c-4.62,1.53-8.68,4.07-12.33,7.31c-4.12,3.64-7.23,8.03-9.75,12.87c-0.7,1.35-1.25,2.79-1.88,4.18c-0.08,0.18-0.21,0.35-0.31,0.53
		c0.28-2.11,0.59-4.22,0.46-6.37c-0.11-1.75-0.44-3.44-1.09-5.07c-0.16-0.41-0.13-0.72,0.06-1.1c1.82-3.7,4.55-6.63,7.65-9.25
		c4.86-4.1,10.28-7.35,16.03-10.02c4.05-1.88,8.41-2.16,12.79-1.85c8.16,0.58,15.79,2.93,22.88,7.03
		C161.24,25.25,161.64,25.57,162.05,25.86z"/>
	<path class="st8" d="M99.03,43.42c0.66,3.02,0.3,6.04-0.12,9.05c-0.46,3.25-1.09,6.49-1.28,9.77c-0.16,2.73,0.21,5.41,1.09,8.01
		c0.3,0.9,0.53,1.82,0.64,2.77c0.07,0.58-0.03,1.11-0.4,1.57c-0.33,0.4-0.78,0.66-1.28,0.55c-0.46-0.1-0.24-0.6-0.27-0.9
		c-0.49-4.96-4.92-8.5-9.72-8.99c-2.17-0.22-4.17,0.3-6.16,1.02c-0.33-0.08-0.33-0.36-0.36-0.6c-0.78-5.6-0.1-10.88,3.56-15.45
		c1.89-2.35,4.37-3.91,7.11-5.09c2.01-0.87,4.12-1.38,6.27-1.79C98.41,43.28,98.73,43.21,99.03,43.42z"/>
	<path class="st9" d="M139.03,238.44c0.44-0.53,1.12-0.48,1.69-0.65c4.18-1.26,8.21-2.86,12.03-4.99c0.42-0.23,0.48-0.5,0.4-0.97
		c-0.92-4.81-1.58-9.66-2.02-14.54c-0.38-4.17-0.68-8.33-0.84-12.52c-0.1-2.59-0.24-5.18-0.26-7.77c-0.01-1.71-0.11-3.42-0.12-5.14
		c-0.01-4.1,0.07-8.19,0.26-12.29c1.05-0.01,2.05,0.3,3.08,0.46c0.42,0.06,0.34,0.45,0.38,0.73c0.49,3.42,0.74,6.87,0.82,10.32
		c0.14,6.17,0.81,12.3,1.2,18.46c0.27,4.26,0.35,8.53,0.5,12.79c0.16,4.45,0.46,8.89,1.31,13.27c0.08,0.39,0.01,0.52-0.36,0.63
		C151.19,237.94,145.16,238.59,139.03,238.44z"/>
	<path class="st4" d="M144.22,141.43c-0.01,0.76-0.03,1.53-0.04,2.29c0,0.23-0.11,0.38-0.28,0.52c-2.08,1.67-4.12,3.38-6.23,5.01
		c-3.18,2.46-6.85,3.83-10.76,4.6c-1.53,0.3-2.01-0.04-2.44-1.52c-0.12-0.42-0.22-0.85-0.33-1.28c-0.23-1.48-0.35-2.98-0.47-4.47
		c-0.15-1.87-0.29-3.74-0.5-5.6c-0.15-1.34-0.15-2.68-0.13-4.03c0.02-2.03,0.9-3.03,2.88-3.33c1.02-0.16,2.03-0.17,3.04-0.02
		c0.44,0.07,0.88,0.05,1.32,0.03c2.13-0.08,4.13,0.5,6.1,1.19c1.64,0.58,2.14,1.91,1.44,3.53c-0.38,0.88-0.32,1.05,0.45,1.61
		c1.13,0.82,2.38,1.33,3.78,1.43c0.49,0.03,0.96-0.12,1.45-0.12C143.77,141.26,144.02,141.21,144.22,141.43z"/>
	<path class="st10" d="M72.68,76.42c-1,0.72-1.74,1.7-2.52,2.63c-4.11,4.84-7.48,10.17-10.21,15.9c-3.2,6.72-5.44,13.77-7.02,21.03
		c-0.94,4.31-1.58,8.68-2.07,13.06c-0.16,1.47-0.21,2.95-0.3,4.42c-0.02,0.33-0.06,0.65-0.3,0.9c-0.58-4.14-0.76-8.31-0.63-12.48
		c0.26-8.63,1.78-17.04,4.69-25.17c4.34-12.1,11.16-22.59,20.47-31.46c0.18-0.17,0.35-0.5,0.58-0.4c0.14,0.06,0.15,0.45,0.22,0.69
		c0.53,1.88,0.14,3.47-1.12,5.04c-1.17,1.45-1.33,3.37-1.65,5.17C72.79,75.97,72.73,76.19,72.68,76.42z"/>
	<path class="st11" d="M141.73,149.77c0.14,0.17,0.27,0.32,0.39,0.48c3.29,4.33,5.61,9.19,7.75,14.15c1.01,2.34,1.98,4.69,2.96,7.03
		c0.09,0.23,0.28,0.58,0.2,0.68c-0.18,0.22-0.46-0.03-0.69-0.1c-6.24-1.97-12.18-4.63-17.96-7.67c-1.25-0.66-2.47-1.37-3.73-2
		c-0.45-0.23-0.51-0.47-0.38-0.92c0.89-2.99,2.78-5.25,5.11-7.19c1.89-1.57,3.97-2.89,6.01-4.25
		C141.5,149.91,141.59,149.86,141.73,149.77z"/>
	<path class="st9" d="M178.8,177.31c0.79,4.92,1.59,9.85,2.37,14.77c0.21,1.32,0.18,1.32,2.33,1.42c1.73,0.08,3.46,0.2,5.19,0.27
		c3.55,0.15,7.11,0.28,10.66,0.45c0.54,0.02,0.81-0.15,1.04-0.66c1.43-3.32,2.43-6.74,2.52-10.39c0-0.18,0.08-0.35,0.13-0.52
		c0.85,3.73,2.27,7.38,1.42,11.32c-1.01,4.75-3.87,7.39-8.69,8.02c-2.56,0.33-5.12,0.5-7.67-0.02c-0.4-0.08-0.78-0.27-1.16-0.42
		c0.28-0.34,0.7-0.41,1.07-0.55c2.41-0.89,4.97-1.06,7.44-1.64c0.46-0.11,0.95-0.11,1.35-0.43c-0.39-0.35-0.91-0.41-1.39-0.52
		c-3.2-0.72-6.41-0.32-9.62-0.11c-1.69,0.11-3.37,0.21-5.07,0.23c-0.68,0.01-0.84-0.24-0.9-0.86c-0.34-4.02-0.7-8.03-1.27-12.03
		c-0.28-1.97-0.55-3.96-1.16-5.85c-0.35-1.07-0.02-1.64,0.82-2.14C178.4,177.54,178.6,177.43,178.8,177.31z"/>
	<path class="st7" d="M95.83,92.84c1.07,0.07,1.88,0.92,2.02,2.19c0.33,3.05,0.71,6.1,1.4,9.09c1.21,5.27,3.02,10.3,5.91,14.9
		c1.57,2.5,3.48,4.72,5.62,6.75c0.25,0.23,0.56,0.43,0.58,0.83c-5.39-0.85-9.7-3.21-12.32-8.29c-2.85-5.53-5.21-11.19-6.27-17.36
		c-0.22-1.26,0.05-2.28,0.95-3.17c0.46-0.45,0.91-0.92,1.36-1.39C96.08,95.37,96.44,94.2,95.83,92.84z"/>
	<path class="st5" d="M164.33,185.01c0.44,1.28,0.44,2.63,0.56,3.95c0.43,4.83,0.79,9.67,1.2,14.5c0.03,0.33-0.03,0.45-0.34,0.53
		c-2.5,0.59-5.04,0.92-7.57,1.34c-0.35,0.06-0.49-0.11-0.51-0.47c-0.18-3.07-0.39-6.13-0.56-9.2c-0.15-2.68-0.27-5.36-0.39-8.03
		c-0.01-0.23,0.02-0.46,0.04-0.69c0.18-0.22,0.44-0.25,0.7-0.24c2.06,0.05,3.9-0.69,5.71-1.53
		C163.53,185,163.89,184.69,164.33,185.01z"/>
	<path class="st11" d="M164.79,146.98c2.88,0.08,4.96,1.54,6.58,3.8c0.15,0.22,0.15,0.4,0.02,0.63
		c-3.99,6.83-7.78,13.79-12.59,20.11c-0.1,0.13-0.15,0.34-0.37,0.33c0.03-0.15,0.05-0.31,0.1-0.46c1.42-4.84,2.03-9.82,2.48-14.83
		c0.25-2.81,0.39-5.64,0.56-8.46c0.02-0.35,0.18-0.47,0.46-0.59C162.91,147.17,163.82,146.94,164.79,146.98z"/>
	<path class="st4" d="M169,131.4c0.95,3.96,1.63,7.93,0.55,11.99c-0.28,1.04-0.77,1.49-1.95,1.4c-3.87-0.3-7.74-0.61-11.51-1.62
		c-0.29-0.51-0.54-1.03-0.6-1.61c-0.11-0.98,0.25-1.59,1.17-1.98c0.54-0.23,1.13-0.31,1.7-0.33c1.58-0.08,2.11-1.42,2.03-2.62
		c-0.05-0.74-0.22-1.46-0.12-2.21c0.19-1.34,0.93-2.18,2.21-2.59c1.27-0.4,2.57-0.61,3.89-0.69c0.58-0.03,1.16,0,1.74-0.01
		C168.42,131.12,168.73,131.19,169,131.4z"/>
	<path class="st12" d="M144.22,141.43c-2.24,0.54-4.29,0.14-6.16-1.24c-0.72-0.53-1.08-1.03-0.51-1.96
		c0.75-1.22,0.29-2.56-1.05-3.06c-1.86-0.69-3.77-1.31-5.8-1.25c-1.61,0.05-3.21-0.31-4.84-0.04c-1.63,0.27-2.48,1.08-2.54,2.76
		c-0.1,2.83,0.27,5.63,0.52,8.43c0.16,1.79,0.3,3.59,0.44,5.38c0.02,0.21,0.03,0.42-0.15,0.58c-2.72-5.75-3.74-11.75-2.76-18.06
		c0.1-0.66,0.31-1.31,0.58-1.92c0.7-1.59,1.87-2.24,3.58-1.9c4.7,0.93,9.12,2.6,13.23,5.06c1.48,0.88,2.9,1.83,4.68,1.97
		c0.21,0.02,0.43,0.08,0.4,0.37c-0.04,0.42,0.07,0.87-0.47,1.12c-1.19,0.56-2.48,0.74-3.73,1.08c-0.53,0.14-1.09,0.19-1.54,0.55
		c0.47,0.31,1.02,0.17,1.53,0.26c1.45,0.25,2.84,0.64,4.17,1.26C144.08,140.96,144.4,141.03,144.22,141.43z"/>
	<path class="st9" d="M158.14,214.24c0-0.88,0-2.48,0.01-4.08c0-0.2-0.1-0.53,0.25-0.55c1.49-0.1,2.87-0.74,4.35-0.87
		c0.38-0.03,0.64,0.03,0.7,0.52c0.52,4,1.7,7.88,2.23,11.88c0.19,1.43,0.26,2.86,0.23,4.3c-0.01,0.23,0.01,0.43-0.3,0.54
		c-2.01,0.72-4.02,1.41-6.2,1.4c-0.48,0-0.57-0.17-0.6-0.59C158.61,222.84,158.39,218.9,158.14,214.24z"/>
	<path class="st13" d="M93.92,76.26c-1.2-0.51-2.39-1.03-3.59-1.52c-0.59-0.24-1.17-0.53-1.83-0.52c-0.35,0.21-0.67,0.01-1-0.09
		c-0.71-0.2-1.42-0.43-2.18-0.32c-1.79,0.26-3.01,1.24-3.62,2.94c-0.19,0.51-0.44,1.02-0.41,1.59c0.34,0.45,0.03,0.89-0.06,1.31
		c-0.44,2.03-0.93,4.03-1.04,6.13c-0.13,2.36,0.49,4.52,1.42,6.63c-3.8-4.72-6.12-9.9-4.14-16.02c1.53-4.74,6.18-7.43,10.8-6.67
		c2.07,0.34,3.4,1.66,4.39,3.4C93.21,74.11,93.63,75.16,93.92,76.26z"/>
	<path class="st14" d="M185.34,136.69c-1.74-1.26-3.49-2.5-5.21-3.77c-2.92-2.16-5.82-4.33-8.74-6.49
		c-0.11-0.08-0.25-0.11-0.37-0.16c-1-1.45-2.04-2.83-4-2.98c-0.38-0.19-0.89-0.22-0.9-0.81c1.37-1.27,3.03-2.21,4.19-3.73
		c0.23-0.3,0.41,0.02,0.56,0.16c1.21,1.08,2.45,2.12,3.6,3.27c2.78,2.79,5.57,5.56,8.74,7.92
		C185.45,131.77,186.1,134.02,185.34,136.69z"/>
	<path class="st6" d="M170.84,196.32c-0.81-5.55-1.62-11.1-2.44-16.64c-0.08-0.57-0.02-0.87,0.68-0.85c0.99,0.03,1.99-0.04,2.99-0.1
		c0.74-0.04,1.16,0.26,1.49,0.94c1.63,3.42,2.34,7.06,2.75,10.78c0.14,1.24,0.18,2.49,0.27,3.74c-0.22,0.3-0.55,0.42-0.87,0.54
		c-1.33,0.47-2.64,0.98-3.94,1.54C171.46,196.4,171.16,196.51,170.84,196.32z"/>
	<path class="st15" d="M158.96,150.64c-0.17,5.96-0.29,11.93-1.58,17.8c-0.46,0.05-0.57-0.34-0.72-0.63
		c-1.07-2.11-2.16-4.21-3.17-6.35c-1.18-2.49-2.4-4.97-3.43-7.53c-0.25-0.62-0.49-1.25-0.7-1.89c-0.59-1.8,0.57-4.03,2.39-4.59
		c0.49-0.15,0.96-0.1,1.42,0.11c1.81,0.83,3.57,1.77,5.35,2.67C158.71,150.31,158.89,150.43,158.96,150.64z"/>
	<path class="st16" d="M93.1,37.95c-1.64,0.63-3.28,1.25-5,1.65c-0.17,0.04-0.36,0.01-0.54,0.01c0.06-0.17,0.1-0.36,0.18-0.52
		c1.86-3.55,4.63-6.3,7.79-8.67c4.97-3.74,10.48-6.42,16.43-8.21c0.71-0.21,1.29,0,1.54,0.56c0.27,0.59-0.2,1.14-0.76,1.28
		c-1.19,0.3-2,1.16-2.99,1.76c-0.53,0.53-1.24,0.74-1.9,1.03c-4.68,2.08-8.87,4.87-12.42,8.58c-0.54,0.57-1.05,1.17-1.53,1.79
		C93.67,37.5,93.42,37.76,93.1,37.95z"/>
	<path class="st9" d="M158.96,150.64c-1.81-0.88-3.64-1.73-5.42-2.66c-0.99-0.52-1.9-0.54-2.68,0.24c-0.9,0.91-1.9,1.82-1.38,3.37
		c0.8,2.43,1.88,4.74,2.97,7.04c1.46,3.08,3,6.12,4.51,9.18c0.11,0.22,0.28,0.42,0.42,0.62c-0.18,0.74-0.36,1.48-0.55,2.22
		c-0.04,0.15-0.12,0.3-0.18,0.44c-0.09-0.13-0.19-0.25-0.27-0.39c-1.94-3.62-3.45-7.43-5.1-11.18c-1.82-4.14-3.76-8.21-6.61-11.78
		c-0.2-0.26-0.21-0.42,0.02-0.63c0.15-0.14,0.3-0.3,0.41-0.47c0.5-0.75,1.03-1.21,2.08-0.94c0.92,0.24,1.82-0.26,2.62-0.73
		c1.58-0.92,3-0.76,4.45,0.32c1.39,1.03,2.78,2.12,4.65,2.11c0.22,0,0.27,0.12,0.25,0.32C159.1,148.7,159.03,149.67,158.96,150.64z"
		/>
	<path class="st17" d="M99.03,43.42c-3.25,0.57-6.42,1.38-9.33,3.03c-5.41,3.07-8.11,7.82-8.53,13.94
		c-0.14,1.97-0.07,3.94,0.35,5.88c-0.05,0.05-0.08,0.11-0.14,0.15c-0.99,0.62-0.97,0.61-1.06-0.56c-0.29-3.52-0.47-7.03-0.11-10.55
		c0.53-5.25,3.59-8.68,7.9-11.24c3.02-1.79,6.3-2.75,9.78-3.09c0.34-0.03,0.52,0.03,0.61,0.37C98.67,42.03,98.85,42.73,99.03,43.42z
		"/>
	<path class="st12" d="M169,131.4c-2.04-0.01-4.06,0.01-6.06,0.56c-1.92,0.53-2.66,1.67-2.38,3.66c0.18,1.3,0.37,2.66-0.98,3.57
		c-0.59,0.4-1.29,0.35-1.94,0.43c-1.74,0.2-2.32,1.1-1.67,2.72c0.1,0.26,0.36,0.52,0.11,0.83c-0.92-0.06-1.45-0.34-1.25-1.47
		c0.14-0.8-0.03-1.66-0.06-2.49c-0.03-0.72,0.31-1.14,1.01-1.36c1.09-0.35,2.23-0.39,3.35-0.53c0.11-0.01,0.22-0.09,0.33-0.13
		c-0.1-0.06-0.19-0.13-0.29-0.17c-1.33-0.45-2.69-0.71-4.09-0.46c-0.46,0.08-0.77,0.03-0.76-0.54c0-0.16-0.07-0.31-0.12-0.47
		c-0.52-1.66-0.51-1.65,0.98-2.59c2.17-1.36,4.21-2.95,6.52-4.1c1.06-0.53,2.14-1,3.34-1.08c1.84-0.13,2.76,0.42,3.46,2.12
		C168.71,130.37,168.84,130.89,169,131.4z"/>
	<path class="st14" d="M107.24,155.64c1.05,0.79,1.64,1.98,2.56,2.87c0.88,0.84,1.03,1.84,1.02,3.01
		c-0.05,5.19-0.02,10.38-0.01,15.56c-0.89,0.13-1.78,0.27-2.67,0.4c-0.44,0.06-0.53-0.3-0.66-0.58c-0.54-1.21-0.65-2.5-0.7-3.8
		c-0.18-4.89,0.23-9.76,0.54-14.63C107.38,157.54,107.27,156.59,107.24,155.64z"/>
	<path class="st8" d="M93.1,37.95c1.48-2.27,3.43-4.1,5.51-5.8c3.24-2.66,6.88-4.65,10.75-6.24c0.13-0.05,0.27-0.07,0.4-0.1
		c0.07,0.31-0.21,0.4-0.38,0.5c-3,1.84-5.07,4.48-6.67,7.56c-0.38,0.74-0.89,1.41-1.38,2.09c-1.12,1.57-2.58,2.25-4.52,1.78
		C95.55,37.44,94.32,37.75,93.1,37.95z"/>
	<path class="st14" d="M164.33,185.01c-0.95,0.39-1.9,0.78-2.85,1.17c-1.51,0.62-3.08,0.91-4.71,0.75
		c-0.02-2.11-0.03-4.21-0.06-6.32c-0.01-0.37,0.23-0.45,0.51-0.54c1.86-0.57,3.78-0.55,5.7-0.61c0.23-0.01,0.41,0.06,0.47,0.31
		C163.79,181.51,164.29,183.22,164.33,185.01z"/>
	<path class="st13" d="M164.21,43.28c-0.11,0.04-0.23,0.06-0.31,0.13c-0.94,0.72-0.94,0.72-1.22-0.43
		c-0.77-3.17,1.17-6.71,4.39-8.01c0.97-0.39,1.96-0.69,3.01-0.75c1.04,1.33,2.07,2.67,3.11,4c0.07,0.09,0.1,0.2,0.15,0.3
		c-0.15,0-0.31,0.02-0.46-0.01c-1.56-0.36-3.12-0.42-4.67,0.02C165.76,39.22,164.45,40.77,164.21,43.28z"/>
	<path class="st14" d="M105.92,185.84c-2.86-0.46-5.74-0.8-8.57-1.41c-1.56-0.34-2.67-1.66-3.99-2.53
		c-0.29-0.19,0.06-0.26,0.16-0.27c0.46-0.04,0.92-0.05,1.37-0.07c0.82,0.71,1.79,0.34,2.69,0.31c2.39-0.08,4.78-0.49,7.16,0.07
		c0.6,0.14,0.96,0.35,0.96,1.08C105.69,183.96,105.84,184.9,105.92,185.84z"/>
	<path class="st18" d="M148.26,132.69c-3.16,0.12-5.88-0.82-8.29-2.69c-0.13-0.1-0.41-0.17-0.31-0.37c0.07-0.15,0.27-0.3,0.53-0.2
		c3.94,1.48,7.74,0.23,11.56-0.6c1.26-0.28,2.53-0.51,3.8-0.76c0.13-0.02,0.26,0.01,0.4,0.02c-0.08,0.09-0.15,0.2-0.25,0.28
		c-1.34,1.06-2.75,2.05-4.02,3.19C150.64,132.49,149.53,132.94,148.26,132.69z"/>
	<path class="st15" d="M107.41,130.33c-0.4-0.31-0.65-0.72-0.7-1.23c-0.04-0.36,0.06-0.72,0.35-0.94c0.26-0.2,0.45,0.13,0.66,0.23
		c1.9,0.92,3.97,1.02,6.02,1.21c1.45,0.13,2.9,0.29,4.36,0.4c0.48,0.03,0.57,0.25,0.53,0.66c-0.09,0.84-0.35,1.62-0.6,2.42
		c-0.36,0.37-0.81,0.3-1.24,0.23c-2.89-0.44-5.64-1.34-8.35-2.4C108.06,130.77,107.76,130.5,107.41,130.33z"/>
	<path class="st16" d="M170.84,196.32c1.67-0.65,3.34-1.3,5.01-1.93c0.23-0.09,0.49-0.13,0.73-0.19c0.04,1.5,0.09,3,0.13,4.5
		c0.01,0.2,0.06,0.44-0.23,0.5c-1.55,0.35-2.94,1.23-4.57,1.32c-0.52,0.03-0.68-0.11-0.72-0.62
		C171.1,198.71,170.96,197.52,170.84,196.32z"/>
	<path class="st4" d="M149.05,135.33c1.8,0.11,2.94,1.67,2.79,3.84c-0.13,1.89-1.64,3.21-3.51,3.06c-1.48-0.11-1.61-0.25-1.78-1.91
		c0.05-0.36,0.35-0.53,0.58-0.74c1.06-0.95,1.76-2.06,1.67-3.55C148.79,135.77,148.83,135.52,149.05,135.33z"/>
	<path class="st17" d="M107.41,130.33c2.36,0.73,4.64,1.71,7.06,2.24c1.17,0.26,2.33,0.6,3.55,0.51c-0.26,1.65-0.26,1.66-1.94,1.26
		c-2.64-0.63-5.16-1.55-7.46-3C108.17,131.06,107.72,130.77,107.41,130.33z"/>
	<path class="st12" d="M149.05,135.33c0.25,2.21-0.66,3.84-2.5,4.99c-0.17-0.76-0.35-1.52-0.5-2.28
		C145.66,136.01,146.66,135.58,149.05,135.33z"/>
	<path class="st5" d="M166.12,122.47c0.3,0.27,0.6,0.54,0.9,0.81c-0.48,0.07-0.95,0.16-1.43,0.22c-0.21,0.03-0.4,0.32-0.59,0.09
		c-0.03-0.04,0.22-0.36,0.38-0.51C165.61,122.86,165.87,122.67,166.12,122.47z"/>
	<path class="st8" d="M128.9,125.35c0-0.07,0-0.14-0.01-0.2c0.15,0.07,0.31,0.14,0.46,0.21C129.2,125.52,129.05,125.46,128.9,125.35
		z"/>
	<path class="st5" d="M159.76,174.71c-0.01,0.02-0.02,0.03-0.03,0.05C159.74,174.74,159.75,174.73,159.76,174.71
		C159.76,174.71,159.76,174.71,159.76,174.71z"/>
	<path class="st10" d="M50.3,134.76c0.01,0.03,0.03,0.06,0.04,0.09c0,0.01-0.02,0.03-0.03,0.04
		C50.29,134.84,50.29,134.8,50.3,134.76z"/>
	<path class="st13" d="M81.6,92.42c0.04,0.05,0.08,0.09,0.13,0.14C81.69,92.51,81.64,92.47,81.6,92.42z"/>
	<path class="st4" d="M178.12,171.92c-0.01,0.02-0.03,0.03-0.04,0.05c0.02-0.01,0.03-0.03,0.05-0.04
		C178.13,171.93,178.12,171.92,178.12,171.92z"/>
	<path d="M149.28,88.97c0.59,3.15,1.6,4.01,5.89,3.51c3.81-0.44,7.15-2.32,10.55-3.93c0.29-0.14,0.58-0.28,0.88-0.42
		c2.53-1.14,3.28-3.8,1.59-6.07c-1.12-1.5-2.43-2.86-3.64-4.3c-2.89-3.45-5.72-6.94-7.63-11.07c-1.15-2.49-1.84-5.09-1.88-7.85
		c-0.01-0.39,0.05-0.68,0.47-0.8c0.4-0.11,0.74-0.04,0.98,0.31c0.14,0.21,0.29,0.44,0.34,0.68c0.84,3.83,3.12,6.9,5.38,9.94
		c3.09,4.17,6.3,8.26,10.25,11.69c1.05,0.91,1.01,2,0.75,3.18c-0.32,1.47-1.15,2.79-1.23,4.33c-0.01,0.1-0.16,0.21-0.27,0.28
		c-4.21,2.73-8.51,5.26-13.48,6.38c-2.76,0.63-5.54,0.8-8.36,0.57c-0.31-0.03-0.56-0.12-0.79-0.36c-1.86-1.91-2.27-5.49-0.86-7.76
		c0.09-0.15,0.12-0.6,0.51-0.28C149.36,87.54,149.52,88.2,149.28,88.97z"/>
	<path d="M150.78,113.15c-1.88,0.05-3.75-0.1-5.6-0.43c-2.84-0.5-5.01-2.03-6.74-4.29c-1.52-1.98-2.77-4.17-4.68-5.84
		c-0.32-0.28-0.68-0.7-0.43-1.16c0.37-0.68,1.13-0.49,1.74-0.61c0.51-0.1,0.54,0.33,0.68,0.62c1.78,3.73,4.98,5.52,8.8,6.44
		c3.86,0.94,7.8,0.94,11.74,0.88c1.74-0.02,3.47-0.07,5.21-0.13c0.5-0.02,0.55,0.12,0.34,0.53c-0.75,1.44-1.83,2.46-3.44,2.9
		C155.9,112.74,153.36,113.04,150.78,113.15z"/>
	<path d="M155.58,103.95c-5.02-0.21-9.97-0.8-14.47-3.3c-1.88-1.04-3.44-2.43-4.39-4.4c-0.06-0.13-0.07-0.29-0.1-0.44
		c0.1,0.03,0.21,0.05,0.31,0.09c3.96,1.77,8.19,2.22,12.45,2.51c2.82,0.2,5.65,0.18,8.47,0.12c0.48-0.01,0.7,0.1,0.77,0.6
		c0.21,1.45,0.19,2.91,0.25,4.37c0.02,0.4-0.2,0.45-0.51,0.45C157.43,103.94,156.5,103.95,155.58,103.95z"/>
	<path d="M136.66,56.93c0.05-0.55,0.09-1.11,0.15-1.66c0.01-0.12,0.11-0.23,0.17-0.35c0.08,0.11,0.18,0.2,0.24,0.32
		c0.64,1.46,1.29,2.92,1.91,4.39c0.84,1.99,1.97,3.76,3.65,5.17c1.45,1.22,2.18,2.76,1.42,4.63c-0.6,1.47-1.87,2.44-3.33,2.85
		c-2.87,0.81-5.79,0.71-8.6-0.36c-2-0.76-2.6-2.21-1.78-3.87c0.18-0.37,0.39-0.51,0.81-0.44c1.71,0.29,3.42,0.58,5.14,0.8
		c1.45,0.19,2.87,0.12,4.14-0.76c0.33-0.23,0.39-0.41,0.16-0.77c-0.49-0.75-0.94-1.54-1.4-2.31c-0.22-0.1-0.37-0.26-0.49-0.47
		c-1.02-1.89-1.87-3.86-2.27-5.98C136.51,57.73,136.33,57.3,136.66,56.93z"/>
	<path d="M130.98,40.67c1.18,0.75,2.28,1.56,2.1,3.21c-0.09,0.83-0.32,1.24-1.35,1.03c-5.19-1.06-9.5,1.12-12.59,6.29
		c-0.46,0.77-0.91,1.56-1.26,2.39c-0.32,0.77-0.67,0.63-1.16,0.23c-0.38-0.32-0.47-0.78-0.64-1.21c-0.26-0.47-0.28-0.96-0.19-1.48
		c0.4-2.25,1.41-4.2,2.9-5.92c2.01-2.31,4.32-4.18,7.32-5.07c1.36-0.4,2.73-0.51,4.09-0.02C130.52,40.23,130.8,40.37,130.98,40.67z"
		/>
	<path d="M160.69,100.72c-0.02-2.37-0.02-2.38,2.23-2.81c3.02-0.57,5.73-1.9,8.4-3.34c1.34-0.72,2.7-1.42,4.05-2.12
		c0.1-0.05,0.21-0.07,0.31-0.1c-0.02,0.1-0.01,0.21-0.06,0.3c-1.79,3.33-3.83,6.46-7.04,8.62c-2.17,1.46-4.57,2.18-7.17,2.32
		c-0.41,0.02-0.57-0.07-0.58-0.51C160.81,102.29,160.74,101.5,160.69,100.72z"/>
	<path d="M173.51,56.65c0-0.51-0.01-1.02,0.01-1.53c0.01-0.16-0.1-0.41,0.16-0.47c0.27-0.06,0.33,0.19,0.42,0.37
		c0.79,1.7,1.57,3.4,2.37,5.09c0.93,1.97,1.9,3.92,3.13,5.72c0.31,0.45,0.12,0.74-0.12,1.04c-1.57,1.97-3.72,2.91-6.11,3.41
		c-0.89,0.19-1.79,0.22-2.69,0.03c-1.73-0.36-2.73-1.55-2.81-3.31c-0.02-0.45,0.23-0.54,0.56-0.63c1.6-0.45,3.26-0.36,4.89-0.53
		c0.79-0.08,1.56-0.21,2.3-0.5c0.37-0.14,0.51-0.3,0.31-0.72c-0.35-0.75-0.65-1.53-0.97-2.29c-0.21-0.09-0.33-0.26-0.42-0.46
		c-0.05-0.1-0.1-0.2-0.14-0.3c-0.45-1.29-0.88-2.57-1.05-3.93C173.31,57.29,173.31,56.96,173.51,56.65z"/>
	<path class="st19" d="M81.28,78.35c-0.53-0.05-0.2-0.4-0.17-0.57c0.68-3.2,3.26-5.38,7.38-3.56c3.38,2.07,4.7,5.13,4.35,9.01
		c-0.03,0.29-0.09,0.78-0.21,0.81c-0.34,0.07-0.51-0.32-0.7-0.56c-0.51-0.64-0.81-1.4-1.17-2.12c-0.35-0.7-0.7-1.41-1.11-2.08
		c-0.41-0.65-0.98-1.13-1.83-1.03c-0.89,0.1-1.37,0.7-1.68,1.47c-0.5,1.25-0.57,2.57-0.6,3.89c-0.03,1.2,0.02,2.41,0.01,3.61
		c0,0.23,0.14,0.5-0.09,0.71c-0.17-0.19-0.36-0.35-0.49-0.56c-0.75-1.15-1.08-2.45-1.23-3.8c-0.23-2.12-0.16-4.22,0.67-6.22
		c0.19-0.46,0.03-0.57-0.35-0.65c-0.61-0.12-1.16,0.05-1.61,0.46C82.04,77.55,81.67,77.96,81.28,78.35z"/>
	<path class="st7" d="M136.66,56.93c0.3,2.76,1.48,5.21,2.68,7.65c-2.33,1.07-4.73,1.38-7.18,0.46c-2.55-0.95-3.13-3.84-1.13-5.7
		C132.6,57.88,134.54,57.15,136.66,56.93z"/>
	<path class="st7" d="M130.98,40.67c-2.28-1.04-4.52-0.69-6.61,0.44c-4.11,2.22-7.24,5.3-8.19,10.11c-0.09,0.45-0.07,0.92-0.09,1.38
		c-1.53-1.55-1.31-3.46-0.88-5.28c0.91-3.84,3.48-6.4,6.81-8.26c1.79-1,3.68-1.77,5.76-1.19C129.25,38.28,130.46,39.12,130.98,40.67
		z"/>
	<path class="st7" d="M173.51,56.65c0.13,1.71,0.63,3.33,1.16,4.95c0,0.08,0.05,0.13,0.09,0.2c0.07,0.18,0.14,0.36,0.2,0.54
		c-0.77,1.03-4.47,2.3-5.65,1.91c-0.58-0.19-0.88-0.61-0.93-1.25c-0.19-2.56,1.11-4.26,3.17-5.49
		C172.16,57.15,172.86,56.93,173.51,56.65z"/>
	<path class="st7" d="M130.54,97.31c0.91,0.02,1.79,0.17,2.62,0.54c0.13,0.06,0.24,0.19,0.36,0.29c-0.1,0.09-0.18,0.2-0.3,0.26
		c-1.91,0.99-2.48,2.74-2.67,4.7c-0.04,0.46-0.1,0.92-0.14,1.37c-0.02,0.22-0.15,0.39-0.35,0.33c-0.4-0.14-1.01,0.1-1.18-0.51
		c-0.49-1.78-0.95-3.57-0.96-5.43c-0.01-0.98,0.61-1.42,2-1.55C130.12,97.29,130.33,97.31,130.54,97.31z"/>
	<path class="st7" d="M149.28,88.97c-0.18-0.65-0.36-1.31-0.53-1.96c0.31-1.03,0.62-2.07,0.95-3.09c0.26-0.81,0.63-1.67,1.56-1.76
		c1.06-0.1,1.81,0.62,2.32,1.5c0.76,1.32,0.69,1.55-0.49,2.43C151.8,87.04,150.54,88.01,149.28,88.97z"/>
	<path d="M182.24,182.61c-0.02,0-0.19-0.04-0.36-0.08c0.08-0.16,0.14-0.33,0.25-0.46c2.23-2.72,5.27-3.87,8.61-4.42
		c0.93-0.15,1.88-0.2,2.83-0.3c0.08-0.01,0.16,0.04,0.24,0.06c-0.05,0.03-0.1,0.08-0.15,0.1c-2.58,0.79-4.69,2.47-7.01,3.74
		C185.32,181.97,183.94,182.54,182.24,182.61z"/>
	<path d="M190.51,191.2c-1.47-0.08-3.73-0.2-5.99-0.32c-0.12-0.01-0.25-0.06-0.37-0.09c0.09-0.1,0.16-0.22,0.26-0.29
		c1.04-0.75,2.26-0.95,3.48-1.01c3.18-0.16,6.26,0.38,9.27,1.39c0.16,0.05,0.29,0.17,0.44,0.26c-0.18,0.02-0.35,0.06-0.53,0.06
		C195.15,191.21,193.23,191.2,190.51,191.2z"/>
	<path d="M186.89,185.52c-0.72,0-1.44,0-2.15,0c-0.13,0-0.26-0.06-0.4-0.09c0.07-0.13,0.13-0.28,0.23-0.38
		c1.05-1.02,2.4-1.26,3.77-1.37c2.59-0.21,5.13,0.17,7.61,0.9c0.1,0.03,0.2,0.09,0.3,0.13c-0.12,0.05-0.24,0.13-0.36,0.15
		C192.89,185.15,189.9,185.53,186.89,185.52z"/>
	<path class="st20" d="M153.41,149.29c0.91-0.01,1.69,0.75,1.71,1.67c0.02,0.91-0.73,1.7-1.65,1.73c-0.92,0.03-1.75-0.78-1.75-1.7
		C151.72,150.07,152.5,149.3,153.41,149.29z"/>
	<path class="st20" d="M155.11,160.52c-0.93,0-1.68-0.74-1.69-1.67c-0.01-0.95,0.77-1.71,1.73-1.7c0.92,0.02,1.67,0.79,1.66,1.7
		C156.8,159.78,156.04,160.52,155.11,160.52z"/>
	<path class="st1" d="M174.76,61.8c-0.03-0.07-0.06-0.13-0.09-0.2C174.7,61.67,174.73,61.73,174.76,61.8z"/>
</g>
</svg>
