<svg id="图层_1" data-name="图层 1" xmlns="http://www.w3.org/2000/svg" viewBox="0 0 359.31 353.39"><defs><style>.cls-1{fill:#86bafe;}.cls-2{fill:#87bafe;}.cls-3{fill:#606060;}.cls-4{fill:#707070;}.cls-5{fill:#5caf30;}.cls-6{fill:#f36341;}.cls-7{fill:#f1c342;}.cls-8{fill:#4e95fb;}.cls-9{fill:#cdcdcd;}.cls-10{fill:#4d94fb;}.cls-11{fill:#cecdcd;}.cls-12{fill:#5197fb;}.cls-13{fill:#5096fb;}</style></defs><title>titan</title><path class="cls-1" d="M327.07,383.5c-1.6,4.55-2.73,9.34-5,13.54-1,1.95-4.1,3.4-6.5,3.92-3.08.66-6.43.08-9.66.19-3.68.12-7,2.41-7.09,5.88-.2,8.53.2,17.08.37,25.63-.22,3.17-.61,6.34-.59,9.5a6.68,6.68,0,0,0,6.85,6.85c3.23.1,6.56-.45,9.67.17,2.44.49,5.68,1.77,6.69,3.69,2.34,4.41,3.54,9.43,5.2,14.21-1.49,1.65-2.93,3.34-4.49,4.93-4.69,4.78-4.88,7.67-.74,12.93-4.06,4.24-4.1,7.52-.1,11.56q6.58,6.66,13.23,13.24c3.85,3.81,7.44,3.94,11.44.31,2.12-1.93,4.12-4,6.1-6.08,2.79-3,5.9-3.25,9.5-1.58,4.28,2,8.76,3.58,12.95,5.74,2.65,1.36,4.93,3.43,7.37,5.18l.75,3.18c-.21,3.18-.61,6.36-.58,9.53a6.63,6.63,0,0,0,6.89,6.82c7.35.09,14.7,0,22,0,3.44,0,6.09-1.89,6.56-5,.54-3.69-.11-7.56-.25-11.35l.75-3.18c1.74-1.51,3.25-3.48,5.25-4.45,5-2.45,10.28-4.4,15.41-6.63,3.33-1.44,6.28-1.19,8.89,1.48,2,2.05,4,4.12,6.09,6.08,4.11,3.86,7.8,3.83,11.72-.06q6.65-6.59,13.23-13.23c4-4.06,4-7.29-.09-11.55,4.14-5.2,4-7.88-.57-12.74-1.59-1.69-3.11-3.43-4.67-5.14,1.45-4.2,2.85-8.42,4.34-12.6,1.26-3.51,3.69-5.47,7.55-5.44,3.23,0,6.47,0,9.7,0s5.92-1.8,6.37-4.75c.56-3.79-.07-7.76-.18-11.65.2-8.54.57-17.08.52-25.61,0-3.25-3.19-5.72-6.65-5.85-3.23-.12-6.46-.06-9.69,0a7.6,7.6,0,0,1-7.9-5.51c-1.5-4.2-3.14-8.35-4.73-12.51,6.69-6.51,11.91-8.53,6.65-18.05,2.89-4.1,2.93-8-.67-11.77h53.09v4.6q0,35,0,69.92,0,58.5-.06,117H268.7c0-.5-.06-1-.06-1.49q0-93.47,0-186.93c0-1,.14-1.92.23-3.11h52.86c-4.24,5.34-4.11,7.23.83,12.63-4.4,1.94-5.18,6.26-1.77,10.47C322.78,378.85,325,381.14,327.07,383.5Z" transform="translate(-220.72 -221.4)"/><path class="cls-2" d="M454.17,422.75c-2.6,28.69-25.51,50.23-53.41,50.23-28.66,0-51.56-21.23-54.18-50.23.48-1.38,1.09-2.73,1.43-4.14a50.7,50.7,0,0,1,13.44-24.5c12.47-12.41,27.42-18.49,45.19-16.19,19.62,2.53,33.79,12.84,42.39,30.59C451.21,413,452.48,418,454.17,422.75Z" transform="translate(-220.72 -221.4)"/><path class="cls-3" d="M532.05,544.82q0-58.5.06-117,0-35,0-69.92v-4.6H479c-4.36-4.27-8.71-8.56-13.08-12.82-4.12-4-7.5-4-11.65,0-1.61,1.56-3.16,3.19-4.76,4.76-4.4,4.36-6.44,4.61-11.94,2a117.91,117.91,0,0,0-11-4.66c-7.89-2.83-8.95-4.42-7.94-13.32H536c13,0,20.05,7.16,20.05,20.21V540.33c0,1.5,0,3,.08,4.49Z" transform="translate(-220.72 -221.4)"/><path class="cls-3" d="M321.73,353.29H268.87c-.09,1.19-.23,2.15-.23,3.11q0,93.47,0,186.93c0,.5,0,1,.06,1.49H244.6q0-41.16.08-82.31,0-56.68,0-113.37c0-12.65,7.27-19.87,20-19.88H382c1.21,8.63-.11,10.63-7.8,13.35-4.09,1.44-8.06,3.27-12,5.09-4.24,1.95-6.76,1.63-10.12-1.65-2-1.91-3.85-3.91-5.83-5.8-3.71-3.54-7.5-3.58-11.18,0C330.58,344.53,326.17,348.93,321.73,353.29Z" transform="translate(-220.72 -221.4)"/><path class="cls-4" d="M244.6,544.82H556.15l14.91.15c-3.75,10.29-14.9,17.83-26.5,17.83H335.86q-40,0-80,0c-11.29,0-22.44-7.69-26.13-17.83Z" transform="translate(-220.72 -221.4)"/><path class="cls-3" d="M229.69,545c3.69,10.14,14.84,17.81,26.13,17.83q40,0,80,0h208.7c11.6,0,22.75-7.54,26.5-17.83h3c-.11,10.22-4.36,18.23-12.42,24.22a28,28,0,0,1-17.06,5.61l-288.38,0c-16.16,0-30.27-14.26-29.25-29.8Z" transform="translate(-220.72 -221.4)"/><path class="cls-5" d="M268,251.45c-4.64,15.15-19.15,20.42-30.42,16.85a24,24,0,0,1,3.64-46.61c10.48-1.74,21.41,4.48,25.62,14.57.42,1,.78,2.1,1.16,3.14Z" transform="translate(-220.72 -221.4)"/><path class="cls-6" d="M394.36,268.74c-15.19-4.62-20.59-19.37-16.75-30.77a24,24,0,0,1,46.5,4c1.74,10.45-4.51,21.45-14.58,25.63-1,.43-2.09.78-3.14,1.16Z" transform="translate(-220.72 -221.4)"/><path class="cls-7" d="M532.76,239.42c5.28-14.3,17.6-21,30.76-16.75A24,24,0,0,1,580,247.47c-.8,10.85-9.26,19.84-20.42,21.71-10.4,1.74-21.5-4.56-25.65-14.59-.42-1-.76-2.1-1.14-3.15Z" transform="translate(-220.72 -221.4)"/><path class="cls-8" d="M454.17,422.75c-1.69-4.76-3-9.72-5.14-14.24-8.6-17.75-22.77-28.06-42.39-30.59-17.77-2.3-32.72,3.78-45.19,16.19A50.7,50.7,0,0,0,348,418.61c-.34,1.41-.95,2.76-1.43,4.14-2.07-26.92,16.52-50.54,41.94-56.4,29.82-6.86,60.62,13.65,65,43.76C454.11,414.27,454,418.53,454.17,422.75Z" transform="translate(-220.72 -221.4)"/><path class="cls-9" d="M268,251.45v-12l35.15,0c5.42,0,7.41,2,7.41,7.44q0,28.61,0,57.2c0,4.69-2.27,7.31-6.14,7.21-3.72-.09-5.81-2.62-5.82-7.16q0-24.11,0-48.22v-4.46Z" transform="translate(-220.72 -221.4)"/><path class="cls-9" d="M532.76,239.42v12H502.37c-.07,1.61-.19,3-.19,4.47q0,23.93,0,47.85c0,4.89-2,7.44-5.82,7.53-4,.1-6.15-2.55-6.15-7.58q0-28.43,0-56.83c0-5.44,2-7.43,7.42-7.44Q515.18,239.41,532.76,239.42Z" transform="translate(-220.72 -221.4)"/><path class="cls-8" d="M479,485c4.06,4.26,4.11,7.49.09,11.55q-6.58,6.64-13.23,13.23c-3.92,3.89-7.61,3.92-11.72.06-2.09-2-4.09-4-6.09-6.08-2.61-2.67-5.56-2.92-8.89-1.48-5.13,2.23-10.38,4.18-15.41,6.63-2,1-3.51,2.94-5.25,4.45l-.12-9.7c0-3.41,1.66-5.56,4.75-6.83,5.51-2.25,11-4.56,16.47-6.88a7.37,7.37,0,0,1,8.58,1.49c2.17,2.06,4.22,4.23,6.35,6.32,3.81,3.72,7.49,3.72,11.39,0C470.27,493.46,474.6,489.19,479,485Z" transform="translate(-220.72 -221.4)"/><path class="cls-8" d="M382.29,513.31c-2.44-1.75-4.72-3.82-7.37-5.18-4.19-2.16-8.67-3.76-12.95-5.74-3.6-1.67-6.71-1.37-9.5,1.58-2,2.08-4,4.15-6.1,6.08-4,3.63-7.59,3.5-11.44-.31q-6.65-6.6-13.23-13.24c-4-4-4-7.32.1-11.56l12.81,12.5c4.33,4.22,7.59,4.24,11.87,0,1.95-1.92,3.88-3.87,5.82-5.8C355,489,358,488.5,361.5,490c5.24,2.28,10.51,4.46,15.81,6.58,3.38,1.36,5.23,3.62,5.11,7.38C382.33,507.09,382.33,510.2,382.29,513.31Z" transform="translate(-220.72 -221.4)"/><path class="cls-10" d="M417.71,516.49c.14,3.79.79,7.66.25,11.35-.47,3.13-3.12,5-6.56,5-7.35,0-14.7.07-22,0a6.63,6.63,0,0,1-6.89-6.82c0-3.17.37-6.35.58-9.53,1.49,3.19,4.14,4.4,7.51,4.4h19.66C413.57,520.89,416.21,519.67,417.71,516.49Z" transform="translate(-220.72 -221.4)"/><path class="cls-8" d="M327,467.08c-1.66-4.78-2.86-9.8-5.2-14.21-1-1.92-4.25-3.2-6.69-3.69-3.11-.62-6.44-.07-9.67-.17a6.68,6.68,0,0,1-6.85-6.85c0-3.16.37-6.33.59-9.5,1.5,3.21,4.17,4.4,7.56,4.39,2.86,0,5.73.07,8.59,0,3.72-.12,6.06,1.59,7.43,5,2.18,5.4,4.48,10.76,6.72,16.14C331.16,462.13,330.39,464.91,327,467.08Z" transform="translate(-220.72 -221.4)"/><path class="cls-8" d="M501.5,432.62c.11,3.89.74,7.86.18,11.65-.45,3-3.11,4.71-6.37,4.75s-6.47,0-9.7,0c-3.86,0-6.29,1.93-7.55,5.44-1.49,4.18-2.89,8.4-4.34,12.6-3.22-2.06-4.16-4.88-2.65-8.56,2.29-5.62,4.7-11.19,7-16.8,1.28-3.09,3.48-4.72,6.89-4.67,2.86,0,5.72,0,8.58,0C497.11,437.14,499.87,435.91,501.5,432.62Z" transform="translate(-220.72 -221.4)"/><path class="cls-11" d="M394.36,268.74h12c0,7.86,0,15.72,0,23.58,0,4.45-2.23,7-6,7s-5.95-2.55-6-7C394.36,284.45,394.37,276.59,394.36,268.74Z" transform="translate(-220.72 -221.4)"/><path class="cls-12" d="M479.7,365.06c5.26,9.52,0,11.54-6.65,18.05-3.9-5.92-3.73-8.52,1.1-13.26C475.89,368.14,477.84,366.65,479.7,365.06Z" transform="translate(-220.72 -221.4)"/><path class="cls-13" d="M327.07,383.5c-2.1-2.36-4.29-4.65-6.28-7.11-3.41-4.21-2.63-8.53,1.77-10.47,1.6,1.55,3.24,3.06,4.8,4.66Q333.51,376.9,327.07,383.5Z" transform="translate(-220.72 -221.4)"/></svg>